<?xml version="1.0" encoding="utf-8"?>
<!-- Generator: Adobe Illustrator 24.1.2, SVG Export Plug-In . SVG Version: 6.00 Build 0)  -->
<svg version="1.1" id="Слой_1" xmlns="http://www.w3.org/2000/svg" xmlns:xlink="http://www.w3.org/1999/xlink" x="0px" y="0px"
	 viewBox="0 0 212.2 229" style="enable-background:new 0 0 212.2 229;" xml:space="preserve">
<style type="text/css">
	.st0{enable-background:new    ;}
	.st1{fill:#FFFFFF;}
</style>
<g id="Слой_2_1_">
	<g id="Layer_1">
		<g class="st0">
			<path class="st1" d="M2,104.7c3.7-16.8,7.5-32.6,11.4-47.3c3.9-14.7,7.9-28.4,12-41.1c1.2-0.2,2.1-0.4,2.9-0.5
				c0.8-0.1,1.6-0.1,2.3-0.1c0.5,0,1.1,0.1,1.7,0.3c0.6,0.2,1.3,0.5,2.1,0.9c0.3,11.7,0.9,25,1.8,39.7c0.9,14.7,1.9,31.2,3,49.4
				c-0.9,0.7-1.9,1.3-3,1.6c-1.1,0.3-2.3,0.5-3.6,0.4c-0.6,0-1.3-0.1-2.4-0.3c-0.2,0-0.4,0-0.5-0.1c-0.4-8-0.7-13.6-0.9-16.7
				c-0.2-3.1-0.3-5.4-0.4-7c-1.4-0.2-2.5-0.4-3.4-0.4c-0.8-0.1-1.6-0.1-2.4-0.2c-0.7,0-1.4-0.1-2.3-0.1c-0.8,0-2.2-0.1-4-0.1
				c-0.8,3.7-1.5,7.4-2.2,11.1c-0.7,3.7-1.3,7.3-1.9,10.9c-1.1,0.6-2.1,1-3,1.2c-1,0.2-1.9,0.3-2.7,0.3c-0.8-0.1-1.6-0.2-2.3-0.6
				C3.5,105.9,2.7,105.4,2,104.7z M17.9,75.6c0.6,0.1,1.2,0.2,1.9,0.2c0.7,0.1,1.7,0.1,3.1,0.2c1.3,0.1,2.3,0.1,3,0.2
				c0.7,0,1.4,0,2,0c-0.4-7.9-0.7-15.4-0.8-22.3C27,46.9,26.9,41,27,36.1c-1.7,7.1-3.4,14-4.9,20.6C20.5,63.3,19.1,69.6,17.9,75.6z"
				/>
		</g>
		<g class="st0">
			<path class="st1" d="M48.9,18.8c0.8-0.4,1.6-0.7,2.5-0.9c0.8-0.2,1.7-0.2,2.6-0.2c1.2,0.1,2.2,0.3,3,0.7c0.8,0.4,1.4,1,1.8,1.6
				l-1,15.7c-1.3,18.9-2.2,34.8-2.9,47.7c-0.7,12.9-1.1,21.5-1.1,25.8c-0.9,0.7-1.8,1.2-2.8,1.5c-1,0.3-2,0.4-3.2,0.3
				c-0.8-0.1-1.6-0.2-2.3-0.6c-0.7-0.3-1.3-0.8-1.9-1.4c0.5-10.7,1-19.1,1.3-25.3c0.4-6.2,0.6-10.1,0.7-11.7
				c0.1-1.5,0.4-5.6,0.9-12.4c0.5-6.8,0.9-12.9,1.3-18.2l0.5-7.5c0.3-4.6,0.5-8,0.5-10C49,22.1,49,20.4,48.9,18.8z M57.2,52.1
				c4.8-8.2,8.4-14.9,10.9-20c2.5-5.1,4.1-9.2,4.8-12.2c0.6-0.2,1.1-0.3,1.6-0.3c0.4-0.1,0.8-0.1,1.1-0.1c1.2,0.1,2.3,0.4,3.3,0.9
				c1,0.5,2.3,1.4,3.8,2.8c-1.5,4.4-3.6,9-6.4,13.9c-2.7,4.9-6,10-9.9,15.2c3.3,10.9,8.4,27.3,15.3,49l1.6,5.3c0,0.4-0.1,0.7-0.2,1
				c-0.1,0.3-0.2,0.7-0.3,1c-1.3,0.9-2.6,1.6-4,2.1c-1.4,0.5-2.8,0.7-4.2,0.6l-0.1,0c-1.1-0.1-3.1-5.2-6-15.3
				C65.6,85.9,61.8,71.3,57.2,52.1z"/>
		</g>
		<g class="st0">
			<path class="st1" d="M88,67.4c1-14.8,1.7-25,2.1-30.5c0.4-5.5,0.8-10,1.1-13.4c0.6-0.9,1.1-1.5,1.6-1.9c0.5-0.3,1.2-0.5,2-0.4
				c1.5,0.1,2.8,0.5,3.9,1.2c1.1,0.7,2.1,1.7,2.9,3.1c-0.6,5.6-1.1,11.2-1.6,16.8c-0.5,5.7-0.9,11.4-1.3,17.1
				c-0.7,10.4-1.2,19.4-1.5,26.9c-0.3,7.5-0.5,12.9-0.5,16.2c0.9,0.3,1.8,0.5,2.6,0.6c0.8,0.2,1.6,0.3,2.2,0.3
				c0.9,0.1,1.8,0.1,2.7,0c0.9-0.1,1.7-0.2,2.6-0.4c0.6-3.9,1.1-8.1,1.6-12.6c0.5-4.5,0.9-9.6,1.2-15.2c0.3-3.9,0.6-11.6,1.1-23
				c0.5-11.5,0.9-20.7,1.3-27.7c0.8-0.6,1.7-1.1,2.7-1.5c1-0.3,2-0.5,3-0.4c0.5,0,1.1,0.2,1.9,0.4c0.8,0.2,1.9,0.5,3.1,0.9
				c-0.4,7.4-0.9,15.3-1.4,23.8c-0.5,8.5-0.8,13.3-0.9,14.3c-0.5,7.6-1.1,15-1.7,22s-1.2,13.5-1.9,19.6c0.6,0.3,1.1,0.5,1.6,0.7
				c0.5,0.2,1,0.3,1.4,0.4c0.2,1,0.4,2.1,0.5,3.5c0.1,1.3,0.1,2.7,0,4.2c-0.1,1.6-0.4,3.9-0.8,6.7c-0.4,2.8-1,6.2-1.8,10
				c-0.9,0.6-1.8,1-2.7,1.2c-0.9,0.2-1.9,0.3-2.8,0.3c-0.9-0.1-1.6-0.2-2.2-0.4c-0.6-0.2-1.1-0.5-1.6-0.9c0.3-3.4,0.7-6.4,1.2-9.2
				c0.5-2.8,1-5.4,1.5-7.7c-1.8,0-3.7,0-5.8,0c-2.1-0.1-4.4-0.2-6.9-0.3c-2.4-0.2-4.5-0.5-6.4-0.9c-1.9-0.5-3.7-1.1-5.2-1.9
				c-0.3-4.2-0.3-9.8-0.2-16.9C87,85.2,87.4,76.9,88,67.4z"/>
		</g>
		<g class="st0">
			<path class="st1" d="M127.3,81c0.7-11.1,1.6-21.4,2.5-30.9c0.9-9.5,2-18.1,3.2-25.7c0.6-0.4,1.2-0.7,1.9-0.9
				c0.6-0.2,1.4-0.2,2.2-0.1c1.1,0.1,2.1,0.2,2.8,0.5c0.7,0.3,1.4,0.7,2,1.2c-0.8,7.5-1.6,15-2.3,22.6c-0.8,7.6-1.2,11.4-1.2,11.5
				c3.3-7.8,6.4-14.4,9.2-19.9c2.8-5.5,5.6-10.2,8.3-14.2c1.6,0.1,2.9,0.3,3.8,0.4c0.9,0.2,1.6,0.4,2,0.7c0.1,4.9,0,11.1-0.3,18.4
				s-0.8,16.3-1.5,26.6c-0.4,6.6-1.4,18.5-3,35.8c-0.3,3.8-0.6,6.7-0.7,8.7c-0.8,0.2-1.5,0.3-2,0.4c-0.6,0.1-1,0.1-1.4,0.1l-1.6-0.1
				c-2-0.1-3.3-0.3-3.9-0.6c-0.6-0.2-0.9-0.6-0.9-1.2c0.9-10.1,1.6-17.7,2-22.8c0.4-5.1,0.8-9.2,1-12.3c0.5-6.9,0.8-13,1.1-18.4
				c0.3-5.4,0.4-10.5,0.5-15.3c-0.6,1.3-1.5,3.1-2.7,5.5c-6.1,12.3-9.7,20.4-11,24.4c-0.7,11.6-1.2,20-1.4,25.2
				c-0.2,5.2-0.4,9.6-0.4,13.1c-0.8,0.5-1.7,0.8-2.6,1s-1.9,0.3-3,0.2c-1.1-0.1-1.9-0.3-2.5-0.7s-1.1-1-1.5-1.9
				c0-4.1,0.2-8.7,0.4-13.9C126.6,93.1,126.9,87.3,127.3,81z"/>
		</g>
		<g class="st0">
			<path class="st1" d="M159.5,109.1c3.3-8.8,7-16.7,11.2-23.5c4.1-6.8,8.6-12.6,13.4-17.3c-3.4-3.7-5.9-7.7-7.7-11.9
				c-1.7-4.2-2.4-8.3-2.2-12.2c0.4-5.9,2.3-10.4,5.8-13.4c3.5-3,8.2-4.3,14.2-3.9c2.8,0.2,5.2,0.6,7,1.3s3.4,1.7,4.7,3.1
				c-0.6,4.2-1.1,7.8-1.6,10.8c-0.4,3-0.7,5.8-0.9,8.4l-4.8,63.5c-0.7,0.6-1.6,1-2.6,1.2c-1,0.2-2.2,0.3-3.7,0.2
				c-0.9-0.1-1.7-0.2-2.2-0.5c-0.6-0.3-1-0.6-1.2-1c-0.1-0.1-0.2-0.2-0.2-0.3c0-0.1-0.1-0.3-0.1-0.6c0-0.2,0.1-0.4,0.1-0.7
				c0.1-0.3,0.1-0.5,0.1-0.7l0.4-5.4l2.1-33.2l-0.5-0.4c-3.8,4.1-7.6,9.5-11.4,16.2c-3.8,6.7-7.6,14.7-11.3,24.1
				c-0.5,0.1-1,0.2-1.5,0.3c-0.5,0-1.1,0-1.6,0c-1.7-0.1-3-0.5-3.9-1.2C160,111.3,159.5,110.3,159.5,109.1z M184.3,46.4
				c-0.3,4.7,0.2,8.8,1.4,12.4c1.3,3.6,3.3,6.5,6,8.8c0.4-5.6,0.8-10.3,1.3-14c0.5-3.7,1.3-9.4,2.4-17.1c-0.5-0.3-0.9-0.5-1.4-0.6
				c-0.5-0.2-1-0.2-1.4-0.3c-2.5-0.2-4.4,0.7-5.8,2.5S184.6,42.7,184.3,46.4z"/>
		</g>
		<g class="st0">
			<path class="st1" d="M55,137.2l0-0.6c1.9-2.1,4.2-3.7,6.8-4.9c2.6-1.2,5.2-1.9,8-2c3.8-0.2,7.1,1.5,9.9,5.2
				c2.8,3.6,4.3,8.3,4.6,14c0.3,5.2-1.3,12.5-4.7,21.8c-3.4,9.3-5.5,15.9-6.4,19.7c0.8,0.1,1.5,0.2,2.2,0.2c0.7,0,1.3,0,2,0
				c2.1-0.1,4.4-0.5,6.8-1.1c2.4-0.7,5.6-1.8,9.6-3.3c0.4,0.8,0.7,1.5,0.9,2.3c0.2,0.7,0.3,1.7,0.4,2.8c0,0.4,0,0.8,0,1.4
				c0,0.6-0.1,1.8-0.3,3.7c-2.3,0.9-5,1.6-8,2.1c-3,0.5-6.4,0.9-10,1.1c-2.7,0.1-5.1,0.1-7.3-0.1c-2.2-0.2-4.3-0.6-6.4-1.2
				c-0.1-2.3,0.2-4.9,0.8-7.6c0.6-2.7,1.9-6.7,3.8-12c0.3-1,0.9-2.5,1.6-4.4c3.8-10.4,5.6-18.2,5.3-23.4c-0.2-3.2-0.7-5.6-1.6-7.3
				c-0.9-1.7-2.3-2.9-4.2-3.5c-1.5,0.2-3,0.7-4.4,1.3c-1.4,0.6-2.7,1.5-4.1,2.5c-1.8-1.1-3-2.1-3.7-3.1
				C55.5,139.6,55.1,138.5,55,137.2z"/>
		</g>
		<g class="st0">
			<path class="st1" d="M95.8,177.7l-0.2-4.2l19.6-1l-1-20l4.3-0.2l1,20l19.5-1l0.2,4.2l-19.5,1l1,20.1l-4.3,0.2l-1-20.1L95.8,177.7
				z"/>
		</g>
		<g class="st0">
			<path class="st1" d="M133.6,131.6c0-0.6,0.2-1.1,0.8-1.6s1.5-0.9,2.7-1.3c2.6-0.8,5.4-1.5,8.6-2.2c3.2-0.6,5.5-1,7-1.1
				c0.6,0,1.1,0,1.7,0.2c0.6,0.1,1.2,0.3,1.8,0.6c0.5,2.9,1,5.8,1.3,8.8c0.3,2.9,0.6,6.1,0.7,9.3c0.4,8.4,0.6,16.8,0.7,25.2
				c0,8.4-0.1,16.7-0.5,24.9c-1.2,0.7-2.2,1.2-3.1,1.6c-0.9,0.4-1.6,0.6-2.2,0.6c-0.3,0-0.7,0-1-0.2c-0.4-0.1-0.8-0.3-1.2-0.5
				c-0.6-8-1.1-16.1-1.6-24.3c-0.5-8.2-1-16.6-1.4-25.2l-0.7-13.4l-11.4,0.1c-0.7,0-1.3-0.1-1.7-0.3
				C133.8,132.6,133.6,132.1,133.6,131.6z"/>
		</g>
	</g>
</g>
</svg>
