<?xml version="1.0" encoding="utf-8"?>
<!-- Generator: Adobe Illustrator 24.1.2, SVG Export Plug-In . SVG Version: 6.00 Build 0)  -->
<svg version="1.1" id="Слой_1" xmlns="http://www.w3.org/2000/svg" xmlns:xlink="http://www.w3.org/1999/xlink" x="0px" y="0px"
	 viewBox="0 0 139.4 100.9" style="enable-background:new 0 0 139.4 100.9;" xml:space="preserve">
<style type="text/css">
	.st0{fill:#485368;}
	.st1{enable-background:new    ;}
</style>
<g id="_лой_1">
</g>
<g id="_лой_2">
	<g id="Layer_1">
		<g>
			<path class="st0" d="M139.4,8.4c-22.9,0.7-46.3,0.2-69.2,0c-0.1-3.6-0.4-4.8-0.5-8.4c-4.1,2.5-18.8,3.6-23.5,4.6
				C27.8,8.5,21.8,7.4,0,10.3c1.5,0.8,3.2,1,4.9,1.2c21.8,2.7,43.1,7.3,64.8,10c0.1-2.7,0.6-6.4,0.7-9.1c21.9,0.1,46,0.1,67.9,0.2
				C139.6,12.5,138.5,9.2,139.4,8.4L139.4,8.4z"/>
			<g class="st1">
				<path class="st0" d="M48.4,65c0-7.7,1.2-13.9,3.5-18.6c2.3-4.6,5.9-7.8,10.6-9.5c0.6,0.3,1.1,0.7,1.3,1.2
					c0.3,0.5,0.4,1.1,0.4,1.9v0.4c-0.5,0.5-1.3,1.2-2.3,2c-2.8,2.3-4.5,4.3-5.3,5.8c-0.9,1.8-1.6,4.1-2.1,7
					c-0.5,2.9-0.7,6.2-0.7,9.8c0,4.6,0.6,8.4,1.9,11.3c1.3,2.9,2.9,4.3,4.8,4.3c0.3,0,1-0.2,1.9-0.7c0.2-0.1,0.4-0.2,0.5-0.2
					c0.4,0.3,0.8,0.7,1,1.1c0.3,0.5,0.4,1,0.4,1.6c0,0.1,0,0.3-0.1,0.5c-0.1,0.2-0.1,0.4-0.2,0.7c-0.6,0.9-1.2,1.6-1.8,2
					c-0.6,0.4-1.4,0.6-2.4,0.6c-3.4,0-6.1-2-8.3-5.9C49.5,76.5,48.4,71.3,48.4,65z"/>
			</g>
			<g class="st1">
				<path class="st0" d="M66.4,85.3c0.5-6.9,0.8-14.1,1-21.4s0.3-14.7,0.3-22.3v-3.1c0.4-0.4,0.9-0.7,1.5-0.9
					c0.6-0.2,1.3-0.3,2.2-0.3h0.9c0.1,1.3,0.3,3.8,0.4,7.4c0.1,3.6,0.1,8,0.2,12.9c0.4,0.1,0.9,0.2,1.3,0.2c0.4,0.1,0.9,0.1,1.3,0.1
					c0.3,0,0.5,0,0.7,0c0.1,0,0.3,0,0.4,0c0-7.2,0.7-12.5,2.1-15.9s3.5-5,6.5-5c3,0,5.2,1.7,6.7,5c1.4,3.3,2.1,8.4,2.1,15.4
					c0,8.9-0.9,15.9-2.8,21.1c-1.8,5.2-4.3,7.8-7.3,7.8c-2.1,0-3.8-2.1-5.1-6.3c-1.3-4.2-2-9.9-2.1-17.1c-0.5-0.1-1-0.2-1.6-0.2
					c-0.6-0.1-1.4-0.1-2.3-0.1c-0.2,5.9-0.5,10.7-0.7,14.6s-0.5,6.7-0.8,8.5c-0.5,0-1.1,0.1-1.8,0.1c-0.6,0.1-1,0.1-1.1,0.1
					c-0.2,0-0.4,0-0.6,0c-0.2,0-0.4-0.1-0.6-0.1c-0.2-0.1-0.4-0.2-0.5-0.2C66.6,85.4,66.5,85.3,66.4,85.3z M81.8,56.9
					c0,8.4,0.3,14.4,0.8,18s1.5,5.5,2.7,5.5c1,0,1.7-1.8,2.2-5.5s0.8-8.9,0.8-15.6c0-6-0.3-10.4-0.9-13c-0.6-2.7-1.5-4-2.9-4
					c-1,0-1.7,1.1-2.2,3.4C82.1,48,81.8,51.7,81.8,56.9z"/>
			</g>
			<g class="st1">
				<path class="st0" d="M93.5,81.3c0-0.1,0-0.3,0-0.4c0-0.1,0.1-0.3,0.1-0.4c0.2-0.1,0.5-0.2,0.8-0.2c0.3-0.1,0.6-0.1,1.1-0.1
					c1.9-3.9,3.4-9,4.3-15.1s1.4-13.8,1.4-22.9v-3.8c0.6-0.3,1.4-0.5,2.6-0.6s2.6-0.2,4.4-0.2c1,0,1.9,0,2.9,0
					c0.9,0,1.9,0.1,2.7,0.1l0.4,0.3c0,1.6,0,3.9,0,6.8c0,2.9,0,5,0,6.3c0,7,0,13,0.1,17.8c0.1,4.9,0.2,8.8,0.4,11.8
					c0.1,0,0.2,0,0.3,0c0.1,0,0.2,0,0.3,0c0.4,0,0.7,0.1,1.1,0.2c0.3,0.1,0.7,0.3,1,0.5c0.1,0.1,0.1,0.2,0.1,0.3c0,0.1,0,0.4,0,0.8
					c0,1-0.2,2.4-0.6,4.1c-0.4,1.7-0.9,4.1-1.6,7l-0.6,0.7c-1.2-0.1-2-0.3-2.5-0.5c-0.5-0.2-0.9-0.6-1.1-1.2l1.6-7.6
					c-1.7,0.1-3,0.1-4.2,0.1c-1.1,0-2,0-2.6,0c-1.3,0-2.6,0-3.8-0.1s-2.5-0.2-3.7-0.3c0.3,1.6,0.7,3.3,1.1,5.2
					c0.4,1.9,0.6,2.9,0.7,3.2c-0.5,0.5-1,0.9-1.5,1.1c-0.5,0.3-0.9,0.4-1.4,0.4c-0.3,0-0.5,0-0.7-0.1s-0.5-0.2-0.8-0.3
					c-0.6-2.7-1.1-5.1-1.6-7.4C93.8,84.8,93.5,82.9,93.5,81.3z M101.1,80.5c1.3,0.2,2.4,0.3,3.5,0.4c1.1,0.1,2.1,0.1,3.1,0.1
					c0.2,0,0.4,0,0.7,0c0.3,0,0.6,0,0.8,0c0-8.3,0-15.5,0-21.5c0-6.1,0-11.9-0.1-17.5c-0.1,0-0.2,0-0.4,0c-0.1,0-0.3,0-0.5,0
					c-0.3,0-0.6,0-0.9,0s-0.7,0.1-1.3,0.2V43c0,8.7-0.4,16.2-1.3,22.5C104,71.7,102.8,76.7,101.1,80.5z"/>
			</g>
			<g class="st1">
				<path class="st0" d="M119,85.1c1.4-9.1,2.8-17.6,4.4-25.5c1.6-7.9,3.2-15.4,5-22.3c0.6-0.2,1.1-0.3,1.5-0.4
					c0.4-0.1,0.8-0.1,1.2-0.1c0.3,0,0.6,0,0.9,0.1c0.3,0.1,0.7,0.2,1.1,0.4c0.6,6.2,1.3,13.2,2.3,21.1c1,7.8,2.1,16.5,3.3,26.2
					c-0.4,0.4-0.9,0.7-1.5,1c-0.6,0.2-1.2,0.3-1.9,0.3c-0.3,0-0.7,0-1.3-0.1c-0.1,0-0.2,0-0.3,0c-0.5-4.3-0.9-7.2-1.1-8.8
					c-0.2-1.6-0.3-2.9-0.4-3.7c-0.8-0.1-1.3-0.1-1.8-0.1c-0.4,0-0.9,0-1.3,0c-0.4,0-0.8,0-1.2,0c-0.4,0-1.2,0-2.1,0.1
					c-0.3,2-0.5,4-0.8,6c-0.2,2-0.5,3.9-0.6,5.9c-0.5,0.3-1.1,0.6-1.6,0.7c-0.5,0.2-1,0.2-1.4,0.2c-0.4,0-0.9-0.1-1.3-0.2
					S119.4,85.4,119,85.1z M126.4,69c0.3,0,0.7,0,1,0c0.4,0,0.9,0,1.6,0c0.7,0,1.2,0,1.6,0c0.4,0,0.7,0,1.1-0.1
					c-0.5-4.2-0.9-8.2-1.2-11.8s-0.5-6.8-0.7-9.4c-0.7,3.8-1.3,7.5-1.9,11.1C127.4,62.4,126.9,65.8,126.4,69z"/>
			</g>
		</g>
	</g>
</g>
</svg>
