<svg xmlns="http://www.w3.org/2000/svg" viewBox="0 0 15.87 25.81"><defs><style>.cls-1,.cls-3{fill:none;}.cls-1,.cls-2,.cls-3{stroke:#fff;stroke-miterlimit:10;}.cls-2{fill:#485368;}.cls-3{stroke-linecap:round;}.cls-4{fill:#fff;}</style></defs><title>Ресурс 17</title><g id="Слой_2" data-name="Слой 2"><g id="Layer_1" data-name="Layer 1"><path class="cls-1" d="M14.47,20.18c-.47,4-5.36,5.13-6.54,5.13S1.86,24.18,1.4,20.18a9.41,9.41,0,0,1,.42-4.11h0A2.14,2.14,0,0,0,5,17.75c.83-.51,1.86.08,3,.08s2.14-.59,3-.09A2.13,2.13,0,0,0,14,16.19s0-.08,0-.12A9.41,9.41,0,0,1,14.47,20.18Z"/><path class="cls-1" d="M14.19,15.09c0,.34-.09.66-.15,1l0,.12a2.13,2.13,0,0,1-3.11,1.56c-.83-.5-1.85.09-3,.09s-2.14-.59-3-.09A2.12,2.12,0,0,1,1.85,16.2l0-.14c-.06-.31-.11-.63-.15-1-.5-4.89.42-7.22,2.1-8.29,0,0,4.39,4.9,8.5,1.62A6,6,0,0,0,13,7.7C14.09,9,14.58,11.27,14.19,15.09Z"/><path class="cls-2" d="M15.32,14.91c-.15,1.06-.6,1.88-1,1.88s-.68-.82-.57-1.88.58-2.05,1-2.05S15.47,13.8,15.32,14.91Z"/><path class="cls-2" d="M.55,14.91c.14,1.06.6,1.88,1,1.88s.68-.82.57-1.88-.58-2.05-1-2.05S.39,13.8.55,14.91Z"/><path class="cls-1" d="M13,7.7a6,6,0,0,1-.77.72C8.16,11.7,3.77,6.8,3.77,6.8h0a4.32,4.32,0,0,1,.46-2.14C5.13,3,6,4.46,8.92,2.8A5.16,5.16,0,0,0,10.78,1,1,1,0,0,1,12.39.89C13.58,2.37,15.23,5.2,13,7.7Z"/><path class="cls-3" d="M6.24,20.2A3.68,3.68,0,0,0,8,20.64a3.75,3.75,0,0,0,1.69-.44"/><path class="cls-3" d="M12.44,13.44a3.28,3.28,0,0,0-3.35,0"/><path class="cls-3" d="M6.78,13.44A3.39,3.39,0,0,0,5.09,13a3.37,3.37,0,0,0-1.66.46"/><path class="cls-4" d="M6,13.73c0,.86-.42,1.55-.93,1.55s-.92-.69-.92-1.55S6,12.87,6,13.73Z"/><path class="cls-4" d="M11.69,13.73c0,.86-.41,1.55-.93,1.55s-.92-.69-.92-1.55S11.69,12.87,11.69,13.73Z"/></g></g></svg>