<?xml version="1.0" encoding="utf-8"?>
<!-- Generator: Adobe Illustrator 23.1.0, SVG Export Plug-In . SVG Version: 6.00 Build 0)  -->
<svg version="1.1" id="Слой_1" xmlns="http://www.w3.org/2000/svg" xmlns:xlink="http://www.w3.org/1999/xlink" x="0px" y="0px"
	 viewBox="0 0 27 27" style="enable-background:new 0 0 27 27;" xml:space="preserve">
<style type="text/css">
	.st0{fill:none;stroke:#485368;stroke-miterlimit:10;}
</style>
<title>Ресурс 16</title>
<g>
	<g id="Layer_1">
		<path class="st0" d="M14.1,8.1l3.8-2.6C18.7,4.9,20,5,20.7,5.9c0.1,0.1,0.1,0.2,0.2,0.3l2.5,4.7c0.3,0.7,0.2,1.6-0.3,2.2l-8.1,8.2
			c-0.8,0.8-2.1,0.8-2.9,0c0,0,0,0,0,0l-8.1-8.2c-0.5-0.6-0.6-1.4-0.3-2.1l2.5-4.7c0.5-1,1.7-1.4,2.7-0.9C9,5.4,9.1,5.5,9.2,5.5
			l3.8,2.6C13.3,8.3,13.7,8.3,14.1,8.1z"/>
	</g>
</g>
</svg>
