<?xml version="1.0" encoding="utf-8"?>
<!-- Generator: Adobe Illustrator 23.1.0, SVG Export Plug-In . SVG Version: 6.00 Build 0)  -->
<svg version="1.1" id="Слой_1" xmlns="http://www.w3.org/2000/svg" xmlns:xlink="http://www.w3.org/1999/xlink" x="0px" y="0px"
	 viewBox="0 0 27 27" style="enable-background:new 0 0 27 27;" xml:space="preserve">
<style type="text/css">
	.st0{fill:none;stroke:#FFFFFF;stroke-miterlimit:10;}
</style>
<title>Ресурс 15</title>
<g>
	<g id="Layer_1">
		<path class="st0" d="M14.1,8.3l3.7-2.5c0.9-0.6,2.1-0.5,2.8,0.4c0.1,0.1,0.1,0.2,0.2,0.3l2.5,4.5c0.3,0.7,0.2,1.5-0.3,2l-8,7.9
			c-0.8,0.8-2.1,0.8-2.9,0l0,0l-8-7.8c-0.5-0.6-0.6-1.4-0.3-2l2.5-4.5c0.5-1.1,1.7-1.4,2.7-1C9,5.7,9.1,5.7,9.3,5.8l3.7,2.5
			C13.3,8.5,13.8,8.5,14.1,8.3z"/>
	</g>
</g>
</svg>
