<svg xmlns="http://www.w3.org/2000/svg" viewBox="0 0 19.99 13.99"><defs><style>.cls-1{fill:#ffd763;}</style></defs><title>Ресурс 23</title><g id="Слой_2" data-name="Слой 2"><g id="Layer_1" data-name="Layer 1"><path class="cls-1" d="M19.58,2.19A2.5,2.5,0,0,0,17.81.43C16.25,0,10,0,10,0S3.74,0,2.17.41A2.55,2.55,0,0,0,.41,2.19,26.49,26.49,0,0,0,0,7a26.28,26.28,0,0,0,.41,4.8,2.52,2.52,0,0,0,1.76,1.77C3.75,14,10,14,10,14s6.26,0,7.82-.41a2.5,2.5,0,0,0,1.77-1.76A26.49,26.49,0,0,0,20,7,25.65,25.65,0,0,0,19.58,2.19ZM8,10V4l5.2,3Z"/></g></g></svg>