<svg xmlns="http://www.w3.org/2000/svg" viewBox="0 0 17.1 17.1"><defs><style>.cls-1{fill:#ffd763;}</style></defs><title>Ресурс 22</title><g id="Слой_2" data-name="Слой 2"><g id="Layer_1" data-name="Layer 1"><path class="cls-1" d="M17.05,5A6.3,6.3,0,0,0,16.66,3a4.13,4.13,0,0,0-1-1.51,4.13,4.13,0,0,0-1.52-1,6.21,6.21,0,0,0-2.07-.4c-.92,0-1.21,0-3.53,0S5.94,0,5,.05A6.27,6.27,0,0,0,3,.45a4,4,0,0,0-1.51,1A4,4,0,0,0,.45,3,6.26,6.26,0,0,0,.05,5c0,.92,0,1.21,0,3.53s0,2.61.05,3.53a6.21,6.21,0,0,0,.4,2.07,4,4,0,0,0,1,1.52,4.11,4.11,0,0,0,1.51,1,6.26,6.26,0,0,0,2.07.4c.92,0,1.21.05,3.53.05s2.61,0,3.52-.05a6.27,6.27,0,0,0,2.08-.4,4.34,4.34,0,0,0,2.5-2.5,6.21,6.21,0,0,0,.4-2.07c0-.92.05-1.21.05-3.53S17.09,5.94,17.05,5Zm-1.54,7a4.47,4.47,0,0,1-.29,1.59,2.87,2.87,0,0,1-1.62,1.62,4.52,4.52,0,0,1-1.59.29c-.9,0-1.17.05-3.45.05s-2.56,0-3.46-.05a4.57,4.57,0,0,1-1.59-.29,2.65,2.65,0,0,1-1-.64,2.69,2.69,0,0,1-.64-1A5,5,0,0,1,1.6,12c0-.9-.05-1.17-.05-3.45S1.56,6,1.6,5.1a5,5,0,0,1,.29-1.58,2.59,2.59,0,0,1,.65-1,2.46,2.46,0,0,1,1-.64A4.63,4.63,0,0,1,5.1,1.6c.91,0,1.18-.05,3.46-.05s2.55,0,3.45.05a4.64,4.64,0,0,1,1.59.3,2.46,2.46,0,0,1,1,.64,2.57,2.57,0,0,1,.64,1,4.45,4.45,0,0,1,.29,1.58c0,.91.05,1.18.05,3.46S15.55,11.11,15.51,12Z"/><path class="cls-1" d="M8.55,4.16A4.4,4.4,0,1,0,13,8.55,4.4,4.4,0,0,0,8.55,4.16Zm0,7.24A2.85,2.85,0,1,1,11.4,8.55,2.85,2.85,0,0,1,8.55,11.4Z"/><path class="cls-1" d="M14.14,4a1,1,0,0,1-2.05,0,1,1,0,1,1,2.05,0Z"/></g></g></svg>