<?xml version="1.0" encoding="utf-8"?>
<!-- Generator: Adobe Illustrator 23.1.0, SVG Export Plug-In . SVG Version: 6.00 Build 0)  -->
<svg version="1.1" id="Слой_1" xmlns="http://www.w3.org/2000/svg" xmlns:xlink="http://www.w3.org/1999/xlink" x="0px" y="0px"
	 viewBox="0 0 27 27" style="enable-background:new 0 0 27 27;" xml:space="preserve">
<style type="text/css">
	.st0{fill:none;stroke:#485368;stroke-miterlimit:10;}
	.st1{fill:#FFD763;stroke:#485368;stroke-miterlimit:10;}
	.st2{fill:none;stroke:#485368;stroke-linecap:round;stroke-miterlimit:10;}
	.st3{fill:#485368;}
</style>
<title>Ресурс 18</title>
<g>
	<g id="Layer_1">
		<path class="st0" d="M20,20.8c-0.5,4-5.4,5.1-6.5,5.1S7.4,24.8,7,20.8c-0.2-1.4,0-2.8,0.4-4.1l0,0c0.1,1.2,1.1,2,2.3,1.9
			c0.3,0,0.6-0.1,0.9-0.3c0.8-0.5,1.9,0.1,3,0.1s2.1-0.6,3-0.1c1.1,0.5,2.3,0,2.8-1c0.1-0.2,0.1-0.3,0.2-0.5c0,0,0-0.1,0-0.1
			C20,18,20.2,19.4,20,20.8z"/>
		<path class="st0" d="M19.8,15.7c0,0.3-0.1,0.7-0.1,1v0.1c-0.2,1.2-1.3,2-2.4,1.8c-0.2,0-0.5-0.1-0.7-0.2c-0.8-0.5-1.9,0.1-3,0.1
			s-2.1-0.6-3-0.1c-1,0.5-2.3,0.1-2.9-0.9c-0.1-0.2-0.2-0.4-0.2-0.7v-0.1c-0.1-0.3-0.1-0.6-0.1-1c-0.5-4.9,0.4-7.2,2.1-8.3
			c0,0,4.4,4.9,8.5,1.6c0.3-0.2,0.5-0.4,0.7-0.7C19.7,9.6,20.1,11.9,19.8,15.7z"/>
		<path class="st1" d="M20.9,15.5c-0.1,1.1-0.6,1.9-1,1.9s-0.7-0.8-0.6-1.9s0.6-2.1,1-2.1S21,14.4,20.9,15.5z"/>
		<path class="st1" d="M6.1,15.5c0.1,1.1,0.6,1.9,1,1.9c0.4,0,0.7-0.8,0.6-1.9s-0.6-2.1-1-2.1S6,14.4,6.1,15.5z"/>
		<path class="st0" d="M18.6,8.3c-0.2,0.3-0.5,0.5-0.8,0.7c-4.1,3.3-8.5-1.6-8.5-1.6l0,0c0-0.7,0.1-1.5,0.5-2.1
			c0.9-1.7,1.8-0.2,4.7-1.9c0.8-0.4,1.4-1.1,1.9-1.8c0.3-0.5,0.9-0.6,1.4-0.3c0.1,0.1,0.2,0.1,0.2,0.2C19.1,3,20.8,5.8,18.6,8.3z"/>
		<path class="st2" d="M11.8,20.8c0.5,0.3,1.1,0.4,1.8,0.4c0.6,0,1.2-0.2,1.7-0.4"/>
		<path class="st2" d="M18,14c-1-0.6-2.3-0.6-3.3,0"/>
		<path class="st2" d="M12.3,14c-0.5-0.3-1.1-0.4-1.7-0.4c-0.6,0-1.2,0.2-1.7,0.5"/>
		<path class="st3" d="M11.6,14.3c0,0.9-0.4,1.6-0.9,1.6s-0.9-0.7-0.9-1.6S11.6,13.5,11.6,14.3z"/>
		<path class="st3" d="M17.3,14.3c0,0.9-0.4,1.6-0.9,1.6s-0.9-0.7-0.9-1.6S17.3,13.5,17.3,14.3z"/>
	</g>
</g>
</svg>
