<svg xmlns="http://www.w3.org/2000/svg" viewBox="0 0 17.1 9.97"><defs><style>.cls-1{fill:#fff;}</style></defs><title>Ресурс 19</title><g id="Слой_2" data-name="Слой 2"><g id="Layer_1" data-name="Layer 1"><path class="cls-1" d="M14.19,5.72c-.28-.35-.2-.5,0-.82,0,0,2.28-3.15,2.52-4.22h0c.12-.39,0-.68-.56-.68H14.28a.82.82,0,0,0-.82.52,15.25,15.25,0,0,1-2.3,3.76c-.43.42-.63.56-.87.56S10,4.7,10,4.31V.68C10,.21,9.86,0,9.47,0H6.53a.45.45,0,0,0-.48.42c0,.44.67.55.74,1.79V4.92c0,.59-.1.7-.34.7-.64,0-2.18-2.29-3.09-4.91C3.17.21,3,0,2.51,0H.64C.11,0,0,.25,0,.52,0,1,.64,3.42,3,6.61A7.3,7.3,0,0,0,8.66,10C9.85,10,10,9.71,10,9.26,10,7.18,9.89,7,10.48,7c.28,0,.76.14,1.87,1.19,1.27,1.25,1.48,1.8,2.19,1.8h1.87c.53,0,.8-.26.64-.78C16.7,8.11,14.3,5.87,14.19,5.72Z"/></g></g></svg>