<?xml version="1.0" encoding="utf-8"?>
<!-- Generator: Adobe Illustrator 23.1.0, SVG Export Plug-In . SVG Version: 6.00 Build 0)  -->
<svg version="1.1" id="Слой_1" xmlns="http://www.w3.org/2000/svg" xmlns:xlink="http://www.w3.org/1999/xlink" x="0px" y="0px"
	 viewBox="0 0 27 27" style="enable-background:new 0 0 27 27;" xml:space="preserve">
<style type="text/css">
	.st0{fill:none;stroke:#FFFFFF;stroke-miterlimit:10;}
</style>
<title>Ресурс 13</title>
<g>
	<g id="Layer_1">
		<path class="st0" d="M21.1,15l-10.2,1c-0.5,0-0.8-0.3-1-0.8L7.5,9.4C7.3,9,7.5,8.4,8,8.2c0.1,0,0.2-0.1,0.3-0.1h13.2
			c0.5-0.1,0.9,0.3,1,0.8c0,0,0,0,0,0l-0.5,5.2C22,14.7,21.6,15,21.1,15z"/>
		<circle class="st0" cx="11" cy="19.4" r="1.5"/>
		<circle class="st0" cx="19.1" cy="19.4" r="1.5"/>
		<path class="st0" d="M5.5,6.1h2.5C8.5,6.1,9,6.5,9,7.1l0,0c0,0.6-0.5,1.1-1.1,1.1H5.5c-0.6,0-1.1-0.5-1.1-1.1l0,0
			C4.4,6.5,4.9,6.1,5.5,6.1z"/>
	</g>
</g>
</svg>
