<svg xmlns="http://www.w3.org/2000/svg" viewBox="0 0 250 54.57"><defs><style>.cls-1{fill:#fff;}</style></defs><title>Ресурс 3</title><g id="Слой_2" data-name="Слой 2"><g id="Layer_1" data-name="Layer 1"><path class="cls-1" d="M57.62,28.66c0-8,4.51-13.94,12.85-13.94S81.57,19,82.15,25.13H75.38c-.49-2.85-1.67-5-5.2-5s-5.69,3.44-5.69,8.34,1.37,8.35,5.69,8.35,4.71-2.06,5.2-5.11h6.77c-.58,6.09-4.61,10.51-11.87,10.51S57.62,36.42,57.62,28.46Z"/><polygon class="cls-1" points="84.22 15.31 90.89 15.31 90.89 36.32 102.67 36.32 102.67 41.72 84.31 41.72 84.31 15.31 84.22 15.31"/><path class="cls-1" d="M103.36,32.19V15.31H110V32.19c0,3.44,1.47,4.72,4.42,4.72s4.42-1.28,4.42-4.72V15.31h6.67V32.19c0,6.58-3,10.11-11.09,10.11S103.36,38.77,103.36,32.19Z"/><path class="cls-1" d="M140,36.32c2.75,0,4.22-.69,4.22-3.14S142.81,30,140,30h-4.62v6.28ZM139.77,26c1.87,0,3.34-.49,3.34-2.65s-1.47-2.65-3.34-2.65h-4.42v5.2h4.42Zm-11.09-10.7h12.86c5.5,0,8.34,2.16,8.34,6.68s-2,4.9-4.12,5.59c2.75.59,5.1,2.36,5.1,6.38,0,5.6-3.63,7.76-9,7.76H128.68Z"/><path class="cls-1" d="M165.19,36.81c4.81,0,6.29-3.73,6.29-8.35s-1.48-8.34-6.29-8.34-6.28,3.73-6.28,8.34S160.38,36.81,165.19,36.81Zm-13.05-8.35c0-7.95,4.71-13.74,13.05-13.74s13.06,5.79,13.06,13.74S173.44,42.3,165.19,42.3,152.14,36.51,152.14,28.46Z"/><path class="cls-1" d="M191.89,27.09c2.65,0,4-1,4-3.14s-1.38-3.14-4-3.14h-4.51v6.38h4.51ZM180.7,15.31h12.47c5.89,0,9.42,2.75,9.42,7.56s-2.06,5.89-5.4,6.58c6.58,1.17,4.22,11.48,5.7,11.87v.4H196c-1.27-1.08,1.08-9.23-4.51-9.23h-4.12v9.23H180.7Z"/><path class="cls-1" d="M204,28.46c0-7.95,4.51-13.74,12.76-13.74S228,19,228.6,24.05h-6.77c-.49-1.77-1.57-3.93-5.2-3.93s-5.89,3.44-5.89,8.34,1.47,8.35,6.08,8.35,5.21-1.87,5.3-4.42h-5V27.58H229v14h-4.81l-.69-3.34c-1.28,2.36-3.73,3.93-7.66,3.93-7.46,0-12-5.79-12-13.84Z"/><path class="cls-1" d="M242.05,16.1a6.58,6.58,0,1,0,6.58,6.57A6.58,6.58,0,0,0,242.05,16.1Zm0,14.52A8,8,0,1,1,250,22.67,7.91,7.91,0,0,1,242.05,30.62Z"/><path class="cls-1" d="M237.63,22.77c0-2.84,1.57-4.91,4.52-4.91s3.92,1.57,4.12,3.73h-2.45c-.2-1-.59-1.76-1.87-1.76s-2.06,1.18-2.06,2.94.49,2.95,2.06,2.95,1.67-.79,1.87-1.77h2.45a3.92,3.92,0,0,1-4.22,3.73,4.61,4.61,0,0,1-4.52-4.91Z"/><path class="cls-1" d="M10.6,32.49c0-.3-.2-.49-.2-.79a17.32,17.32,0,0,1-.58-4.51,17.82,17.82,0,0,1,4.61-12L15.61,14a17.8,17.8,0,0,1,12-4.62c4.61,0,3,.2,4.52.59a2.25,2.25,0,0,1,.78.2A17.86,17.86,0,0,1,45.15,24.05a16.33,16.33,0,0,0-1.08,1.57,88.57,88.57,0,0,1-8.15,9.62,11.1,11.1,0,1,1-7.85-19c6.09,0,5.79,1.18,7.85,3.24l1.38-1.37,1.37-1.38a14.69,14.69,0,0,0-10.5-4.31,14.92,14.92,0,0,0-.1,29.83c-.59.5-1.18.89-1.76,1.38a16.44,16.44,0,0,1-1.58,1.08A17.89,17.89,0,0,1,10.89,32.49Zm24.93,7.65c.89-.78,1.77-1.66,2.55-2.45a103.32,103.32,0,0,0,7.07-7.95c.39-.59.88-1.08,1.28-1.67.59-.88,1.27-1.76,1.86-2.65a2.33,2.33,0,0,1,.3-.49,18.66,18.66,0,0,0,1.08-1.77c5.39-8.93,6.67-16.29,3.43-20.31l-.59-.59c-3.83-3.83-11.58-2.75-21,2.94a14,14,0,0,1,1.86.3,14.92,14.92,0,0,1,2.26.68,1.38,1.38,0,0,1,.59.2c6.38-3.24,11.58-4,13.84-1.77a1.93,1.93,0,0,1,.49.69c1.57,2.45.69,7.36-2.26,13.15a15.61,15.61,0,0,1-1,1.77,21.28,21.28,0,0,0-11-12.17,11.57,11.57,0,0,0-2-.79,19.26,19.26,0,0,0-2.25-.68,18.05,18.05,0,0,0-2.46-.4c-.78,0-1.57-.09-2.35-.09A21.21,21.21,0,0,0,13,11.68l-1.18,1.18a20.93,20.93,0,0,0-5.6,14.33c0,5.5,0,1.57.1,2.35A18.66,18.66,0,0,0,5.2,31.31c-5.69,9.42-6.77,17.08-2.94,21l.59.59a8.65,8.65,0,0,0,5.59,1.66c3.93,0,9-1.76,14.72-5.2a6.27,6.27,0,0,1-2-.39c-.69-.2-1.47-.39-2.16-.59a1.43,1.43,0,0,1-.59-.2c-5.79,3-10.7,3.83-13.15,2.26A4.57,4.57,0,0,1,4.61,50C2.36,47.7,3.14,42.5,6.38,36.12a15.61,15.61,0,0,1,1-1.77,16.19,16.19,0,0,0,.79,2,21,21,0,0,0,12.17,11,7.91,7.91,0,0,0,2.16.59,22.9,22.9,0,0,0,2.55.49c.78,0,1.57.1,2.35.1h.5a21.4,21.4,0,0,0,13.93-5.6L43,41.72a20.66,20.66,0,0,0,5.6-13.45v-.49c-.4.59-.79,1.18-1.18,1.67l-1.18,1.47c-.69.88-1.47,1.86-2.16,2.75a17.14,17.14,0,0,1-3.43,5.59l-1.18,1.18a18.3,18.3,0,0,1-5.6,3.43,17.34,17.34,0,0,1-3.92,1,19.61,19.61,0,0,0,1.57-1.28c1.27-1.08,2.65-2.16,3.92-3.44Z"/></g></g></svg>