<svg width="300" height="86" viewBox="0 0 300 86" fill="none" xmlns="http://www.w3.org/2000/svg">
<path fill-rule="evenodd" clip-rule="evenodd" d="M199.44 7.03885H199.659H199.993H200.154C200.237 7.10118 200.295 7.1919 200.316 7.29393C200.337 7.39595 200.321 7.50222 200.269 7.59272C198.951 13.6204 198.043 19.7309 197.552 25.882C196.994 32.7017 196.829 39.548 197.057 46.3867L197.552 57.0256C197.723 59.2132 198.077 61.3825 198.611 63.5106C198.78 64.6636 199.371 65.7123 200.269 66.453C200.483 66.5987 200.727 66.6935 200.983 66.7299C201.754 66.7299 202.641 65.9683 203.643 64.5721C204.253 63.5262 204.773 62.4298 205.197 61.2951L204.967 58.9873C204.859 58.1802 204.805 57.3668 204.805 56.5526C204.799 54.0152 204.945 51.4797 205.243 48.9599C205.535 46.8469 206.032 44.7677 206.728 42.7519C206.933 42.0812 207.356 41.4985 207.93 41.0969C208.504 40.6953 209.196 40.498 209.895 40.5365L210.39 40.7557L210.77 41.148C210.255 43.3581 209.87 45.5967 209.618 47.8522C209.324 50.241 209.174 52.6455 209.169 55.0525C209.169 57.1987 209.169 59.1027 209.33 60.7643C209.415 62.1962 209.584 63.6218 209.837 65.0337C210.275 67.4338 210.988 68.8992 211.933 69.407C212.224 69.6199 212.574 69.7368 212.934 69.7416C213.855 69.7416 214.869 69.0377 215.974 67.6415C217.045 66.2651 217.85 64.6995 218.346 63.0259L218.231 62.2528L217.793 60.4758C217.171 57.7372 217.394 55.9256 218.461 55.0409L218.68 54.9833C219.083 54.9833 219.416 55.9179 219.681 57.7641C220.171 55.4271 220.778 53.1164 221.5 50.8408C222.042 48.9824 222.727 47.1691 223.55 45.4174C225.058 42.1981 226.693 40.0057 228.466 38.8172C229.061 38.4883 229.722 38.2989 230.401 38.2633L230.792 38.321C231.93 38.5806 232.934 39.2498 233.613 40.2018C233.739 40.2966 233.837 40.4241 233.895 40.5706C233.954 40.717 233.972 40.8768 233.947 41.0326C233.899 41.175 233.819 41.3043 233.714 41.4104C233.608 41.5165 233.479 41.5966 233.337 41.6442C232.277 42.3135 231.702 43.6981 231.621 45.7982C231.672 47.8953 231.97 49.979 232.508 52.0062C233.184 54.9403 234.061 57.8242 235.133 60.6373C235.755 62.5874 236.284 64.5721 236.733 66.5684C237.039 68.0885 237.204 69.6335 237.228 71.184C237.228 73.9533 236.361 75.8765 234.626 76.9535C233.66 77.5903 232.524 77.9164 231.368 77.8881C230.981 77.9036 230.594 77.8687 230.216 77.7843C229.801 77.7354 229.392 77.6426 228.996 77.5073C227.034 76.9282 225.272 75.8135 223.907 74.2879C222.203 72.3517 220.841 70.1393 219.877 67.7453C219.632 68.8914 219.141 69.9703 218.438 70.907C218.039 71.587 217.475 72.155 216.799 72.5584C216.123 72.9618 215.356 73.1876 214.569 73.2148L213.74 73.1571L212.957 72.9956L212.186 72.6609C211.847 72.5455 211.529 72.3781 211.242 72.1648C209.282 70.8968 207.743 69.0733 206.82 66.9261C205.945 69.1069 204.644 70.2031 202.952 70.2031H202.284C202.056 70.199 201.832 70.1438 201.628 70.0416L199.97 69.43C198.079 68.3246 196.496 66.7615 195.364 64.8837C194.05 62.6618 193.152 60.2176 192.716 57.6718C192.494 59.9229 191.701 62.0798 190.413 63.9375C189.9 64.6229 189.231 65.1761 188.463 65.5513C187.694 65.9265 186.847 66.113 185.992 66.0953H185.163L184.334 65.9222C182.768 65.6631 181.278 65.0627 179.969 64.1635C178.66 63.2644 177.564 62.0882 176.758 60.7181C175.964 59.4197 175.363 58.0127 174.973 56.541C174.52 55.045 174.295 53.4889 174.306 51.9254C174.303 49.8562 174.508 47.792 174.916 45.7636L175.802 42.3827L171.197 45.3828L170.045 45.8213L170.103 48.7637C170.193 50.7539 170.027 52.7474 169.608 54.6948C169.202 56.2291 168.548 57.6868 167.674 59.0103C167.033 60.0181 166.15 60.8484 165.106 61.425C164.062 62.0017 162.89 62.3061 161.698 62.3105H160.984C159.301 62.2392 157.661 61.7508 156.213 60.8889C154.764 60.0271 153.551 58.8186 152.683 57.3718L152.349 56.9333C151.925 58.8211 151.007 60.5616 149.689 61.9759C148.537 63.0964 146.989 63.7145 145.383 63.6952H144.945C143.59 63.708 142.256 63.3617 141.077 62.6913C139.848 61.9083 138.822 60.8445 138.083 59.5873C136.692 57.122 135.951 54.3421 135.93 51.51C135.911 49.4467 136.097 47.3866 136.483 45.3598C136.972 43.1092 137.618 40.8959 138.417 38.7364C136.316 39.7291 134.046 40.3125 131.728 40.4557C130.355 40.7992 128.911 40.7228 127.583 40.2365V40.398C126.619 42.1374 125.365 43.6985 123.875 45.0136L121.446 46.9521L121.146 47.3098V50.3561C121.249 52.3877 121.062 54.4234 120.594 56.4025C120.268 58.1054 119.598 59.7233 118.625 61.1566C117.917 62.4667 116.931 63.6059 115.738 64.4948C114.545 65.3837 113.173 66.0008 111.717 66.303L110.565 66.5338H109.414C108.201 66.55 107.002 66.2807 105.912 65.7476C104.822 65.2145 103.872 64.4324 103.139 63.4644C102.247 62.3113 101.554 61.0164 101.089 59.6335C100.626 58.0133 100.401 56.334 100.422 54.6486C100.432 52.9911 100.594 51.3379 100.905 49.7099C101.212 47.9367 101.678 46.1949 102.298 44.5059C103.834 40.5134 105.841 37.821 108.32 36.4286L109.103 36.1517C109.328 36.0571 109.573 36.0175 109.817 36.0363C110.483 36.0371 111.128 36.2742 111.636 36.7055L112.419 36.5324H113.075C114.401 36.5589 115.676 37.0487 116.679 37.9171C118.637 39.6672 119.992 41.994 120.548 44.5636C121.896 43.5205 123.152 42.3622 124.301 41.1019L124.75 40.4788L125.245 39.6018L125.407 39.0941C124.869 38.588 124.452 37.9678 124.185 37.2789C123.918 36.5901 123.808 35.85 123.864 35.1132C123.865 33.5441 124.347 32.0134 125.245 30.7283C125.517 30.3161 125.867 29.962 126.276 29.6866C126.686 29.4113 127.145 29.2202 127.629 29.1244H127.79C128.78 29.1244 129.517 29.8398 130.001 31.2822C130.608 33.3527 130.888 35.5059 130.83 37.6633C132.82 37.5689 134.766 37.0371 136.529 36.1055C138.397 35.1108 140.048 33.7536 141.388 32.113C141.495 31.9839 141.635 31.8851 141.792 31.8264C141.95 31.7677 142.12 31.7512 142.286 31.7784C142.453 31.7517 142.624 31.7716 142.781 31.8361L143.218 32.113C143.742 32.4106 144.189 32.8261 144.525 33.3268C144.861 33.8274 145.076 34.3995 145.153 34.9978C145.165 35.2256 145.129 35.4535 145.049 35.667C145.02 35.9002 144.941 36.1244 144.819 36.3247C143.469 38.9365 142.467 41.714 141.837 44.5866C141.147 47.5855 140.849 50.6613 140.95 53.737C140.907 55.5129 141.208 57.2802 141.837 58.9411C142.027 59.411 142.349 59.8156 142.764 60.1063C143.179 60.397 143.668 60.5614 144.174 60.5797H144.347C145.017 60.5534 145.673 60.3807 146.27 60.0738C146.866 59.7668 147.389 59.333 147.801 58.8027C149.032 57.2143 150 55.4376 150.668 53.5409C150.081 51.8832 149.766 50.1414 149.735 48.383C149.668 45.2399 150.277 42.1192 151.52 39.2326C152.886 35.7939 154.805 33.5939 157.277 32.6323C157.597 32.5282 157.93 32.4738 158.267 32.4707C159.155 32.5006 160.002 32.8533 160.65 33.4631L161.145 33.4054C161.998 33.453 162.832 33.6692 163.601 34.0415C164.37 34.4138 165.057 34.9349 165.624 35.5747C167.555 37.6383 168.896 40.1855 169.504 42.9481C171.003 42.6295 172.429 42.0306 173.707 41.1826C175.386 40.0106 176.91 38.6303 178.243 37.0748L179.613 35.7709C181.217 34.0614 183.423 33.047 185.762 32.9438H186.476C187.654 33.1466 188.776 33.5969 189.768 34.2651C190.76 34.9333 191.6 35.8043 192.232 36.8209C192.516 31.5687 193.069 26.3346 193.89 21.1395C194.531 16.914 195.493 12.7439 196.769 8.66584C197.012 8.16651 197.392 7.74764 197.866 7.45917C198.34 7.1707 198.886 7.0248 199.44 7.03885ZM234.166 35.0324C234.465 33.5092 235.513 32.7246 237.32 32.7246L244.344 33.2785L246.647 24.0011C246.816 23.3743 247.163 22.8099 247.645 22.3759C248.127 21.9419 248.724 21.6568 249.364 21.5549H249.801H249.916C250.066 21.7049 250.078 21.9472 249.974 22.2818L248.201 33.6939C252.185 34.1785 255.639 34.6978 258.563 35.2516C261.845 35.8055 264.861 36.4055 267.636 37.0748L267.97 37.4094C268.002 37.5036 268.009 37.6047 267.988 37.7022C267.968 37.7997 267.922 37.8899 267.855 37.9633C267.589 38.3565 267.23 38.6779 266.81 38.8993C266.39 39.1207 265.923 39.2351 265.449 39.2326H264.942L264.447 39.1172L258.978 38.3441C257.642 38.1248 255.788 37.8594 253.394 37.571L247.971 36.844C247.702 38.9902 247.387 42.2789 247.027 46.7098C246.742 49.7099 246.505 53.0716 246.313 56.7949C246.082 60.2566 246.013 63.5105 246.082 66.6145C246.133 68.9832 246.302 71.3478 246.589 73.6995C247.142 77.5458 248.136 79.6151 249.571 79.9074L250.239 80.0228C250.891 79.9389 251.516 79.7112 252.069 79.356C252.623 79.0009 253.091 78.5271 253.44 77.9689C254.844 76.4304 255.915 73.8264 256.652 70.157C256.652 69.857 256.721 69.7185 256.871 69.7185C256.96 69.733 257.044 69.7719 257.113 69.8309C257.182 69.8899 257.234 69.9668 257.262 70.0531C257.904 71.1146 258.137 72.3741 257.919 73.5956C257.811 77.065 257.147 79.6882 255.927 81.4652C255.533 82.1495 254.97 82.721 254.293 83.1251C253.616 83.5292 252.846 83.7523 252.058 83.773H251.287L249.686 83.3345L248.742 82.8268C247.129 81.9728 245.731 80.7613 244.655 79.2843C243.495 77.6042 242.649 75.7277 242.156 73.7456C241.709 71.4245 241.455 69.0701 241.396 66.7068C241.281 64.0452 241.316 60.6258 241.5 56.4487C241.684 53.3101 241.999 49.8753 242.444 46.1444C242.847 42.4404 243.308 39.221 243.826 36.3247C242.674 36.2209 241.627 36.1632 240.556 36.1632H234.868C234.718 36.1648 234.571 36.1246 234.443 36.0472C234.315 35.9697 234.211 35.8581 234.143 35.7247C234.035 35.517 234.035 35.2862 234.143 35.0324H234.166ZM212.819 35.8632C212.949 36.2899 212.956 36.7444 212.84 37.175C212.724 37.6055 212.489 37.9946 212.163 38.2979C211.901 38.556 211.589 38.7578 211.247 38.8907C210.904 39.0237 210.538 39.085 210.171 39.071H209.802C209.029 39.0852 208.277 38.8095 207.695 38.2979C207.212 37.6877 206.978 36.9167 207.039 36.1401C207.373 34.2131 208.386 33.2554 210.079 33.2554H210.136C210.834 33.2492 211.505 33.5202 212.004 34.0089C212.502 34.4976 212.787 35.1644 212.796 35.8632H212.819ZM224.77 51.8216C223.773 54.4448 222.59 58.1757 221.224 63.0144C222.386 65.8975 224.034 68.5593 226.094 70.8839C227.287 72.5268 228.937 73.7795 230.838 74.4841L231.84 74.6572C232.845 74.6572 233.363 73.9187 233.394 72.4417C233.309 71.0871 233.065 69.7471 232.669 68.4492C231.901 65.8183 231.134 63.4182 230.366 61.2489C229.445 58.5488 228.708 56.0102 228.155 53.6563C227.698 51.859 227.435 50.0175 227.372 48.1637L227.649 45.6713C226.413 47.5795 225.444 49.649 224.77 51.8216ZM191.588 44.4482C191.559 42.3177 191.068 40.219 190.148 38.2979C189.481 36.8902 188.744 36.0824 187.926 35.8632C187.73 35.8103 187.524 35.8103 187.328 35.8632C186.069 35.8632 184.702 36.9517 183.229 39.1287C182.281 40.4735 181.536 41.951 181.018 43.5135C180.4 45.3168 179.938 47.1698 179.636 49.0522C179.532 49.8171 179.478 50.588 179.475 51.36C179.382 52.0753 179.344 52.7967 179.36 53.5178C179.316 55.8464 179.788 58.1558 180.742 60.2796C181.594 62.0105 182.515 62.9913 183.505 63.2221C183.732 63.3295 183.98 63.3847 184.23 63.3836C185.812 63.3836 187.347 61.8143 188.836 58.6757C189.863 56.5884 190.592 54.3665 191 52.0754C191.473 49.5622 191.662 47.0037 191.565 44.4482H191.588ZM112.431 43.8481C112.894 44.4838 113.5 45.0011 114.2 45.358C114.901 45.7148 115.675 45.9013 116.46 45.9021H116.679C116.398 43.9865 115.823 42.1259 114.975 40.3865C114.721 39.8529 114.331 39.3965 113.843 39.064C113.356 38.7314 112.789 38.5348 112.2 38.4941L111.924 38.5518C111.156 38.5518 110.773 39.1056 110.773 40.2134C110.85 41.5906 111.442 42.8882 112.431 43.8481ZM115.793 49.3407H114.86C113.306 49.3727 111.792 48.8398 110.6 47.8406C109.871 47.2887 109.26 46.5959 108.803 45.803C108.346 45.0102 108.053 44.1336 107.94 43.225C107.142 44.9411 106.551 46.7461 106.179 48.6022C105.744 50.607 105.539 52.655 105.568 54.7063C105.485 57.2926 106.136 59.8494 107.445 62.0797C108.447 63.4759 109.46 64.1798 110.496 64.1798C112.231 64.1798 113.709 62.7221 114.929 59.8065C115.623 58.2517 116.103 56.6097 116.357 54.9256C116.668 53.0193 116.78 51.0856 116.691 49.1561L115.793 49.3407ZM155.4 43.6866C155.028 45.5864 154.858 47.5204 154.893 49.4561C154.902 52.0828 155.546 54.6682 156.77 56.991C157.409 58.2337 158.442 59.2282 159.706 59.8181C159.957 59.9074 160.223 59.9466 160.489 59.9335C161.848 59.9335 163.068 58.8488 164.127 56.6679C164.82 55.2537 165.286 53.7389 165.509 52.1793C165.783 50.3426 165.856 48.4816 165.728 46.629C163.456 46.598 161.29 45.6641 159.706 44.0328C158.277 42.7109 157.374 40.9159 157.162 38.9787C156.336 40.4641 155.742 42.0673 155.4 43.7328V43.6866ZM159.879 36.5901C159.994 38.0293 160.577 39.3909 161.537 40.4672C162.479 41.956 163.968 43.0132 165.682 43.4097C165.451 41.3344 164.83 39.3218 163.851 37.4786C163.59 36.8915 163.186 36.3802 162.674 35.9927C162.163 35.6052 161.561 35.3542 160.927 35.2632H160.754C160.543 35.2611 160.336 35.317 160.155 35.4247C159.938 35.7894 159.841 36.2134 159.879 36.6363V36.5901ZM74.4926 0.334707C76.5171 0.550159 78.5276 0.881483 80.5143 1.32706C82.3513 1.73508 84.1473 2.31058 85.8797 3.04636C87.5193 3.69726 89.1087 4.46863 90.6349 5.35416C93.7057 7.05314 96.3239 9.46726 98.2686 12.3929C99.0769 13.7209 99.6896 15.1589 100.088 16.6623C100.521 18.193 100.727 19.7794 100.698 21.3702C100.645 23.4087 100.215 25.4196 99.4314 27.3013C98.6015 29.3834 97.4042 31.2987 95.8967 32.9554C94.3179 34.8594 92.5555 36.6025 90.6349 38.1594C88.5395 39.8337 86.3228 41.3495 84.003 42.6943C85.7602 43.163 87.437 43.8943 88.9769 44.8636C90.3671 45.74 91.6009 46.8438 92.6268 48.1291C93.638 49.4134 94.3889 50.8833 94.8375 52.4562C95.2935 54.0759 95.4265 55.7698 95.2289 57.4411C94.9768 60.1706 94.1946 62.8243 92.9262 65.2529C91.5888 67.9228 89.8447 70.3676 87.7565 72.4994C86.7318 73.4918 85.4537 74.6341 83.7842 75.9611C82.4141 76.965 80.8943 77.9573 79.1787 78.9612C77.7433 79.7305 76.0662 80.5613 74.1472 81.4536C72.2589 82.2614 70.4052 82.9653 68.563 83.5537C66.3617 84.3294 64.1066 84.9426 61.816 85.3884C59.8692 85.7682 57.8925 85.9729 55.9094 86C54.3635 85.996 52.8214 85.8453 51.3039 85.55C49.8993 85.2121 48.5447 84.6923 47.2741 84.0038C46.4154 83.6473 45.6717 83.0599 45.1251 82.3065C44.5786 81.553 44.2504 80.6629 44.1769 79.7343C44.2459 79.0651 44.4532 78.7305 44.7871 78.7305L45.3282 78.9035C48.0157 80.1555 50.8975 80.9361 53.8484 81.2113C53.2634 80.6667 52.8015 80.0029 52.4936 79.2645C52.1858 78.5261 52.0393 77.7302 52.0638 76.9304C51.7798 72.1609 51.5994 68.3146 51.5226 65.3914C51.3269 60.845 51.2463 56.5756 51.2463 52.5831C51.3154 48.3368 51.4229 44.3289 51.5687 40.5595C51.7529 36.4978 51.9947 33.0054 52.2941 30.0822C52.5934 27.159 52.9772 24.1665 53.4454 21.1048C53.883 18.3355 54.3896 15.8431 54.9307 13.6276C55.1065 12.6206 55.5089 11.6671 56.1074 10.8393C56.7059 10.0116 57.4848 9.33139 58.3848 8.85046L58.972 8.70046L59.1332 8.81585C59.1907 8.91796 59.221 9.03322 59.221 9.15048C59.221 9.26773 59.1907 9.383 59.1332 9.48511C58.1814 14.5084 57.4139 20.0279 56.8305 26.0435C56.2663 32.263 55.9324 39.0133 55.8288 46.3406C55.7252 53.6678 55.9785 60.0027 56.2663 65.1837C56.6194 70.9609 57.1375 76.2803 57.8207 81.1421C59.5132 81.022 61.1948 80.779 62.8522 80.4151C64.8441 80.0113 66.8475 79.492 68.8854 78.8689C71.6218 78.0464 74.2681 76.9484 76.7839 75.5919C79.246 74.3245 81.5823 72.8254 83.7612 71.1147C86.1049 69.4124 88.1118 67.2877 89.6793 64.8491C91.0295 62.8333 91.8457 60.5063 92.0511 58.0872C92.1968 56.3822 91.9404 54.6668 91.3027 53.0793C90.6284 51.5657 89.5827 50.2478 88.2631 49.2484C86.9315 48.2086 85.4323 47.4047 83.8303 46.8714C81.9072 46.2903 79.919 45.953 77.9122 45.8675C75.3749 47.0511 72.7495 48.0349 70.0598 48.8099C67.444 49.4913 64.7806 49.9735 62.0923 50.2523H61.3784C59.9392 50.2523 59.1908 49.8369 59.0757 49.0291C59.2177 48.1878 59.6206 47.4126 60.2271 46.8137C61.1804 45.7228 62.359 44.8527 63.6812 44.2636C65.5692 43.4726 67.5329 42.8772 69.5417 42.4865C71.996 42.0929 74.4725 41.854 76.9566 41.7711C79.5738 40.6749 82.1195 39.4147 84.5787 37.9979C86.7247 36.7093 88.7618 35.2467 90.6695 33.6246C92.6512 31.9541 94.3233 29.9464 95.6089 27.6936C96.6329 25.8277 97.1304 23.7174 97.0481 21.5895C96.9026 18.8187 95.8551 16.172 94.066 14.0545C91.851 11.5461 89.0616 9.61377 85.9373 8.42352C83.1974 7.24554 80.3306 6.3898 77.3941 5.87341C74.2559 5.30608 71.0725 5.02798 67.8837 5.04261L62.7946 5.20415C59.0938 5.4913 55.428 6.12486 51.845 7.09654C48.6243 7.94805 45.508 9.15551 42.5534 10.6967C40.2143 11.9327 38.0563 13.4858 36.1402 15.3123C34.5891 16.8666 33.3741 18.7245 32.571 20.7702C32.1307 22.0769 31.8863 23.4418 31.8456 24.8204C31.8456 26.4326 32.2201 28.0227 32.9396 29.4647C33.659 30.9068 34.7036 32.1611 35.9906 33.1284C37.426 34.1277 39.0175 34.8803 40.6997 35.3555C42.6311 35.8606 44.6219 36.1013 46.6178 36.0709H47.5504C47.7849 36.0461 48.0208 36.1032 48.2182 36.2324L48.3218 36.5209C48.1992 36.8461 47.9926 37.1328 47.7231 37.3517C45.4431 38.726 42.8035 39.3813 40.147 39.2326H39.6519C38.0907 39.2791 36.5361 39.0087 35.0818 38.4376C33.6275 37.8665 32.3034 37.0065 31.1893 35.9093C30.1596 34.8103 29.3746 33.5045 28.8866 32.0784C28.3367 30.4724 28.0377 28.791 28 27.0936C28.1235 24.3023 28.703 21.5503 29.7156 18.9471C30.7326 16.4794 32.1745 14.2101 33.9756 12.2429C35.9305 10.0313 38.2047 8.12546 40.7227 6.58883C42.3408 5.59014 44.0438 4.73678 45.8118 4.03872C47.6449 3.26124 49.5301 2.61347 51.4536 2.10017C53.438 1.51291 55.4619 1.06943 57.5098 0.773188C59.6873 0.431283 61.8822 0.2117 64.0842 0.115467L67.8492 7.6924e-05C70.0679 -0.00335936 72.2854 0.108333 74.4926 0.334707Z" fill="white"/>
<path fill-rule="evenodd" clip-rule="evenodd" d="M300 52.6888C299.062 53.6725 297.903 54.4019 296.625 54.8122C295.405 55.3335 294.267 56.0415 293.251 56.9124C293.571 58.2353 293.759 59.5882 293.813 60.9504C293.886 62.3139 294.07 63.6686 294.364 65C293.111 64.5019 292.03 63.6292 291.26 62.4937C290.465 61.4345 289.503 60.5205 288.414 59.7901C287.27 60.1959 286.193 60.7789 285.219 61.519C284.729 62.0149 284.14 62.3952 283.493 62.6336C282.847 62.872 282.158 62.9628 281.474 62.8998C282.117 60.6637 283.137 58.5623 284.488 56.692C284.509 55.9214 284.332 55.1588 283.977 54.4806C283.622 53.8024 283.1 53.2325 282.463 52.8281C281.225 51.9581 280.346 50.642 280 49.1382L285.996 50.1129C287.194 49.5255 288.134 48.4939 288.628 47.2236C289.069 45.776 289.614 44.3642 290.259 43C291.271 43.4757 291.845 44.7521 291.991 46.8291C292.137 49.3122 292.43 50.7975 292.891 51.2732C294.229 51.4597 295.554 51.7271 296.862 52.0738C297.879 52.4128 298.933 52.6194 300 52.6888Z" fill="white"/>
<path fill-rule="evenodd" clip-rule="evenodd" d="M2.94739 53.7186C2.3073 54.0025 1.5814 54.0742 0.891071 53.9218C0.466099 53.7821 0.178214 53.2996 0 52.4615C0.686422 52.1007 1.47652 51.9455 2.26195 52.017C2.89255 52.144 3.1119 52.7154 2.94739 53.7186Z" fill="white"/>
<path fill-rule="evenodd" clip-rule="evenodd" d="M5.14123 51.0643L7.22967 49.7313C7.19375 48.438 7.25479 47.1438 7.41227 45.8599C7.37769 44.5454 7.58674 43.236 8.02853 42C8.89586 42.1159 9.72896 42.9621 10.5164 44.5269L12.1826 48.3867C13.4731 48.5839 14.7917 48.4484 16.0171 47.9926C16.2453 47.8701 16.501 47.8102 16.7589 47.8188C17.7942 47.4219 18.9219 47.3453 20 47.5985C19.077 48.5653 18.2299 49.6039 17.4665 50.705C17.0556 51.2381 16.816 51.5511 16.7247 51.6322C16.2482 52.4915 15.8656 53.401 15.5835 54.3446C16.0232 55.021 16.4051 55.7346 16.7247 56.4773C16.8897 56.6364 17.0115 56.836 17.0785 57.0569C17.6153 58.1457 17.9555 59.3234 18.0827 60.5342H16.7247C16.0522 60.3815 15.406 60.1276 14.8074 59.7808C14.0124 59.0435 13.0191 58.5633 11.9544 58.4015C10.9517 59.2351 10.0683 60.2065 9.32953 61.2877C8.77334 62.5383 7.75137 63.5138 6.48787 64C6.22735 62.861 6.15408 61.686 6.27104 60.5227C6.53352 58.7144 6.67047 57.6133 6.67047 57.2308C6.70222 56.7796 6.58627 56.3304 6.34066 55.9531C6.09506 55.5757 5.73356 55.2914 5.31241 55.1444C4.92249 54.9479 4.59358 54.6459 4.36199 54.2716C4.1304 53.8972 4.00513 53.4652 4 53.0232C4.0083 52.6245 4.1177 52.2348 4.31761 51.8917C4.51753 51.5485 4.8012 51.2635 5.14123 51.0643Z" fill="white"/>
</svg>
