<svg xmlns="http://www.w3.org/2000/svg" viewBox="0 0 261.01 74.55"><defs><style>.cls-1{fill:#485368;fill-rule:evenodd;}</style></defs><title>Ресурс 8</title><g id="Слой_2" data-name="Слой 2"><g id="Layer_1" data-name="Layer 1"><path class="cls-1" d="M173,6.1l.19,0,.29,0h.14a.37.37,0,0,1,.1.48,118,118,0,0,0-2.36,15.85,154.46,154.46,0,0,0-.43,17.77l.43,9.22a33.94,33.94,0,0,0,.92,5.62,4.07,4.07,0,0,0,1.44,2.55,1.47,1.47,0,0,0,.62.24c.67,0,1.44-.66,2.31-1.87A18.42,18.42,0,0,0,178,53.12l-.2-2a15.79,15.79,0,0,1-.14-2.11,54.74,54.74,0,0,1,.38-6.58,28.29,28.29,0,0,1,1.29-5.38,2.72,2.72,0,0,1,2.75-1.92l.43.19.33.34a50,50,0,0,0-1,5.81,51.86,51.86,0,0,0-.39,6.24c0,1.86,0,3.51.14,4.95a31.44,31.44,0,0,0,.44,3.7c.38,2.08,1,3.35,1.82,3.79a1.51,1.51,0,0,0,.87.29c.8,0,1.68-.61,2.64-1.82a12.1,12.1,0,0,0,2.06-4l-.1-.67-.38-1.54q-.81-3.56.58-4.71l.19-.05c.35,0,.64.81.87,2.41a61.43,61.43,0,0,1,1.58-6,32.29,32.29,0,0,1,1.78-4.7c1.31-2.79,2.73-4.69,4.27-5.72a3.9,3.9,0,0,1,1.68-.48l.34.05a4.14,4.14,0,0,1,2.45,1.63.75.75,0,0,1,.29.72.84.84,0,0,1-.53.53c-.92.58-1.42,1.78-1.49,3.6a23.12,23.12,0,0,0,.77,5.38A56.76,56.76,0,0,0,204,52.55c.54,1.69,1,3.41,1.39,5.14a22,22,0,0,1,.43,4q0,3.6-2.26,5a4.93,4.93,0,0,1-2.83.81,3.88,3.88,0,0,1-1-.09,5.14,5.14,0,0,1-1.06-.24,9.57,9.57,0,0,1-4.42-2.79,19.74,19.74,0,0,1-3.5-5.67,7,7,0,0,1-1.25,2.74,4.06,4.06,0,0,1-3.36,2l-.72-.05-.68-.14-.67-.29a3,3,0,0,1-.82-.43A10.21,10.21,0,0,1,179.41,58c-.76,1.89-1.89,2.84-3.36,2.84l-.58,0a1.33,1.33,0,0,1-.57-.14l-1.44-.53a11.36,11.36,0,0,1-4-3.94,18.34,18.34,0,0,1-2.3-6.25,11.5,11.5,0,0,1-2,5.43,4.68,4.68,0,0,1-3.84,1.87l-.72,0-.72-.15a9.42,9.42,0,0,1-6.58-4.51A13.62,13.62,0,0,1,151.75,49a13.45,13.45,0,0,1-.58-4,26.86,26.86,0,0,1,.53-5.34l.77-2.93-4,2.6-1,.38.05,2.55a20.05,20.05,0,0,1-.43,5.14,12.65,12.65,0,0,1-1.68,3.74A6.18,6.18,0,0,1,140.22,54h-.62a8.85,8.85,0,0,1-7.21-4.28l-.29-.38a9.44,9.44,0,0,1-2.31,4.37,5.28,5.28,0,0,1-3.74,1.49h-.38a6.68,6.68,0,0,1-3.36-.87,8,8,0,0,1-2.6-2.69,14.44,14.44,0,0,1-1.87-7,27.11,27.11,0,0,1,.48-5.33A42.49,42.49,0,0,1,120,33.57a15.92,15.92,0,0,1-5.81,1.49,6.15,6.15,0,0,1-3.6-.19l0,.14a15.1,15.1,0,0,1-3.22,4l-2.11,1.68L105,41l0,2.64a18.63,18.63,0,0,1-.48,5.24A11,11,0,0,1,102.81,53a8.87,8.87,0,0,1-6,4.46l-1,.2h-1A6.73,6.73,0,0,1,89.36,55a11.3,11.3,0,0,1-1.78-3.32A15,15,0,0,1,87,47.36a23.55,23.55,0,0,1,.42-4.28,25.87,25.87,0,0,1,1.21-4.51q2-5.19,5.23-7l.68-.24a1.34,1.34,0,0,1,.62-.1,2.45,2.45,0,0,1,1.58.58l.68-.15.57,0a4.94,4.94,0,0,1,3.13,1.2,10.78,10.78,0,0,1,3.36,5.76,25.62,25.62,0,0,0,3.26-3l.39-.54.43-.76.14-.44a4.29,4.29,0,0,1-1.34-3.45,6.63,6.63,0,0,1,1.2-3.8,3.23,3.23,0,0,1,2.07-1.39h.14c.86,0,1.5.62,1.92,1.87a17.88,17.88,0,0,1,.72,5.53,11.81,11.81,0,0,0,4.95-1.35,13.85,13.85,0,0,0,4.22-3.46.84.84,0,0,1,.78-.29.8.8,0,0,1,.43.05l.38.24a3.37,3.37,0,0,1,1.68,2.5,1.43,1.43,0,0,1-.09.58,1.43,1.43,0,0,1-.2.57,29.2,29.2,0,0,0-2.59,7.16,30.82,30.82,0,0,0-.77,7.93,11.9,11.9,0,0,0,.77,4.51A2.28,2.28,0,0,0,125,52.5h.15a4,4,0,0,0,3-1.54,16.24,16.24,0,0,0,2.49-4.56,14.13,14.13,0,0,1-.81-4.47A19,19,0,0,1,131.38,34q1.78-4.47,5-5.72a2.87,2.87,0,0,1,.86-.14,3.18,3.18,0,0,1,2.07.86l.43-.05a5.62,5.62,0,0,1,3.89,1.88A13.64,13.64,0,0,1,147,37.22a10.59,10.59,0,0,0,3.65-1.53,21.07,21.07,0,0,0,3.94-3.56L155.78,31a7.8,7.8,0,0,1,5.34-2.45l.62,0a7.36,7.36,0,0,1,5,3.36,132.7,132.7,0,0,1,1.44-13.59,72.51,72.51,0,0,1,2.5-10.81A2.51,2.51,0,0,1,173,6.1Zm30.16,24.26c.26-1.32,1.17-2,2.74-2l6.1.48L214,20.8a2.92,2.92,0,0,1,2.36-2.12l.38,0,.1,0c.13.13.14.34.05.63l-1.54,9.89q5.19.63,9,1.35c2.85.48,5.47,1,7.88,1.58l.29.29a.48.48,0,0,1-.1.48A2.51,2.51,0,0,1,230.33,34h-.44l-.43-.1-4.75-.67c-1.16-.19-2.77-.42-4.85-.67l-4.71-.63q-.35,2.79-.82,8.55-.37,3.9-.62,8.74c-.2,3-.26,5.82-.2,8.51a61.23,61.23,0,0,0,.44,6.14q.72,5,2.59,5.38l.58.1a3.86,3.86,0,0,0,2.78-1.78q1.83-2,2.79-6.77c0-.26.06-.38.19-.38a.43.43,0,0,1,.34.29,4.42,4.42,0,0,1,.57,3.07q-.14,4.51-1.73,6.82a4,4,0,0,1-3.36,2l-.67,0-1.39-.38-.82-.44a10.42,10.42,0,0,1-3.55-3.07,14.68,14.68,0,0,1-2.17-4.8,37,37,0,0,1-.66-6.1q-.15-3.46.09-8.89.24-4.08.82-8.93c.35-3.21.75-6,1.2-8.51-1-.09-1.91-.14-2.84-.14h-4.94a.7.7,0,0,1-.63-.38Q203,30.69,203.14,30.36Zm-18.54.72a2.06,2.06,0,0,1-.57,2.11,2.34,2.34,0,0,1-1.73.67H182a2.7,2.7,0,0,1-1.83-.67,2.67,2.67,0,0,1-.57-1.87c.29-1.67,1.17-2.5,2.64-2.5h.05A2.29,2.29,0,0,1,184.6,31.08ZM195,44.91q-1.3,3.41-3.08,9.7a23.55,23.55,0,0,0,4.23,6.82,8.92,8.92,0,0,0,4.12,3.12l.87.15q1.31,0,1.35-1.92a15.08,15.08,0,0,0-.63-3.46q-1-3.42-2-6.24c-.8-2.34-1.44-4.54-1.92-6.58a22.33,22.33,0,0,1-.68-4.76l.24-2.16A21.51,21.51,0,0,0,195,44.91Zm-28.82-6.39a12.72,12.72,0,0,0-1.25-5.33c-.58-1.22-1.22-1.92-1.93-2.11a1,1,0,0,0-.52,0q-1.64,0-3.56,2.83A14.52,14.52,0,0,0,157,37.71a28.91,28.91,0,0,0-1.2,4.8,15.12,15.12,0,0,0-.14,2,12.33,12.33,0,0,0-.1,1.87,13.65,13.65,0,0,0,1.2,5.86q1.11,2.25,2.4,2.55a1.46,1.46,0,0,0,.63.14q2.06,0,4-4.08a21.47,21.47,0,0,0,1.88-5.72A29.63,29.63,0,0,0,166.16,38.52ZM97.43,38a4.34,4.34,0,0,0,3.5,1.78h.19A16.27,16.27,0,0,0,99.64,35a2.89,2.89,0,0,0-2.41-1.64l-.24.05q-1,0-1,1.44A4.76,4.76,0,0,0,97.43,38Zm2.92,4.76h-.81a5.59,5.59,0,0,1-3.7-1.3,5.93,5.93,0,0,1-2.31-4A20.68,20.68,0,0,0,92,42.12a23.37,23.37,0,0,0-.53,5.29A11.85,11.85,0,0,0,93.1,53.8c.87,1.21,1.75,1.82,2.65,1.82h0q2.26,0,3.85-3.79a16.33,16.33,0,0,0,1.24-4.23,24,24,0,0,0,.29-5Zm34.4-4.9a23.7,23.7,0,0,0-.44,5,14.09,14.09,0,0,0,1.63,6.53,5.46,5.46,0,0,0,2.55,2.45,1.77,1.77,0,0,0,.68.1c1.18,0,2.24-.94,3.16-2.83a13,13,0,0,0,1.2-3.89,22.19,22.19,0,0,0,.19-4.81,7.44,7.44,0,0,1-5.23-2.25,7,7,0,0,1-2.21-4.38A14.45,14.45,0,0,0,134.75,37.9Zm3.89-6.15a5.73,5.73,0,0,0,1.44,3.36,5.81,5.81,0,0,0,3.6,2.55,14.3,14.3,0,0,0-1.59-5.14,3.29,3.29,0,0,0-2.54-1.92h-.15a1,1,0,0,0-.52.14A1.75,1.75,0,0,0,138.64,31.75ZM64.48.29a46.37,46.37,0,0,1,5.23.86,26.81,26.81,0,0,1,4.66,1.49,31.11,31.11,0,0,1,4.13,2,19,19,0,0,1,6.63,6.1,14,14,0,0,1,1.58,3.7,14,14,0,0,1,.53,4.08,14.31,14.31,0,0,1-1.1,5.14,16.18,16.18,0,0,1-3.07,4.9,32.6,32.6,0,0,1-4.57,4.51A46.94,46.94,0,0,1,72.74,37a15.73,15.73,0,0,1,4.32,1.88,12.76,12.76,0,0,1,3.17,2.83,10.88,10.88,0,0,1,1.92,3.75,11.1,11.1,0,0,1,.34,4.32,18.22,18.22,0,0,1-2,6.77A24.93,24.93,0,0,1,76,62.83c-.89.86-2,1.85-3.45,3-1.19.87-2.51,1.73-4,2.6q-1.87,1-4.37,2.16c-1.64.7-3.25,1.31-4.85,1.82A41.55,41.55,0,0,1,53.47,74a28.91,28.91,0,0,1-5.13.53,21.27,21.27,0,0,1-4-.39,14.45,14.45,0,0,1-3.5-1.34,4.38,4.38,0,0,1-2.69-3.7c.06-.58.24-.87.53-.87l.47.15a22.5,22.5,0,0,0,7.4,2A4.86,4.86,0,0,1,45,66.67q-.37-6.2-.47-10c-.17-3.94-.24-7.64-.24-11.1q.09-5.52.28-10.42.24-5.28.63-9.08t1-7.78c.38-2.4.82-4.56,1.29-6.48a5.83,5.83,0,0,1,3-4.14L51,7.54l.14.1a.59.59,0,0,1,0,.58q-1.24,6.53-2,14.35c-.49,5.39-.78,11.24-.87,17.59s.13,11.84.38,16.33Q49.11,64,50,70.32a30.48,30.48,0,0,0,4.37-.63c1.73-.35,3.47-.8,5.24-1.34a36.78,36.78,0,0,0,6.86-2.84,37.92,37.92,0,0,0,6.06-3.88,20.25,20.25,0,0,0,5.14-5.43,12.4,12.4,0,0,0,2.06-5.86A9.46,9.46,0,0,0,79.08,46a8.51,8.51,0,0,0-2.64-3.32,12.86,12.86,0,0,0-3.85-2.06,20.88,20.88,0,0,0-5.14-.87,46.82,46.82,0,0,1-6.82,2.55,46.56,46.56,0,0,1-6.92,1.25h-.62c-1.25,0-1.9-.36-2-1.06a3.52,3.52,0,0,1,1-1.92,8.67,8.67,0,0,1,3-2.21,26.08,26.08,0,0,1,5.09-1.54,51.61,51.61,0,0,1,6.44-.62,58.7,58.7,0,0,0,6.62-3.27,39.77,39.77,0,0,0,5.29-3.79A19.12,19.12,0,0,0,82.82,24a10.16,10.16,0,0,0,1.25-5.29,11,11,0,0,0-2.59-6.53A17.94,17.94,0,0,0,74.42,7.3,33.51,33.51,0,0,0,67,5.09a45.36,45.36,0,0,0-8.26-.72l-4.42.14a51.68,51.68,0,0,0-9.51,1.64,39.06,39.06,0,0,0-8.07,3.12,25,25,0,0,0-5.57,4A13.87,13.87,0,0,0,28.07,18a12.09,12.09,0,0,0-.63,3.51,9,9,0,0,0,3.6,7.2,13.67,13.67,0,0,0,4.09,1.93,19.2,19.2,0,0,0,5.14.62h.81a.89.89,0,0,1,.58.14l.09.25a1.7,1.7,0,0,1-.52.72A11.52,11.52,0,0,1,34.65,34l-.43,0a10.06,10.06,0,0,1-7.35-2.88,9.22,9.22,0,0,1-2-3.32,14.29,14.29,0,0,1-.77-4.32,22.14,22.14,0,0,1,1.49-7.06,19.74,19.74,0,0,1,3.7-5.81,25.65,25.65,0,0,1,5.86-4.9,28,28,0,0,1,4.42-2.21,37,37,0,0,1,4.9-1.68A37.48,37.48,0,0,1,49.73.67,51.34,51.34,0,0,1,55.44.1L58.71,0A55.83,55.83,0,0,1,64.48.29Z"/><path class="cls-1" d="M261,45.55a7.22,7.22,0,0,1-3,1.83,11.69,11.69,0,0,0-3,1.81,17.33,17.33,0,0,1,.5,3.48,20.86,20.86,0,0,0,.49,3.49A6,6,0,0,1,253.23,54a10.31,10.31,0,0,0-2.53-2.33,10.6,10.6,0,0,0-2.84,1.49,4.22,4.22,0,0,1-3.33,1.19A17.09,17.09,0,0,1,247.21,49a3.79,3.79,0,0,0-1.8-3.33,5.34,5.34,0,0,1-2.19-3.18l5.33.84a4.69,4.69,0,0,0,2.34-2.49,26.36,26.36,0,0,1,1.45-3.64c.9.41,1.41,1.51,1.54,3.3.13,2.14.39,3.42.8,3.83a30.67,30.67,0,0,1,3.53.69A11.41,11.41,0,0,0,261,45.55Z"/><path class="cls-1" d="M2.15,46.47a2.26,2.26,0,0,1-1.5.16c-.31-.11-.52-.49-.65-1.15a2.79,2.79,0,0,1,1.65-.35C2.11,45.23,2.27,45.68,2.15,46.47Z"/><path class="cls-1" d="M4.47,44.31,6.3,43.16a22,22,0,0,1,.16-3.34A9.05,9.05,0,0,1,7,36.49c.76.1,1.49.83,2.18,2.18L10.64,42A6.82,6.82,0,0,0,14,41.66a1.3,1.3,0,0,1,.65-.15,4.91,4.91,0,0,1,2.84-.19A22.27,22.27,0,0,0,15.27,44c-.36.46-.57.73-.65.8a11.69,11.69,0,0,0-1,2.34,12.22,12.22,0,0,1,1,1.84,1.16,1.16,0,0,1,.31.5,8.78,8.78,0,0,1,.88,3H14.62a6.06,6.06,0,0,1-1.68-.65,4.75,4.75,0,0,0-2.5-1.19,12.23,12.23,0,0,0-2.3,2.49,4.47,4.47,0,0,1-2.49,2.34,9.15,9.15,0,0,1-.19-3c.23-1.56.35-2.51.35-2.84a1.77,1.77,0,0,0-1.19-1.8A2.07,2.07,0,0,1,3.47,46,2,2,0,0,1,4.47,44.31Z"/></g></g></svg>