<svg width="49" height="20" viewBox="0 0 49 20" fill="none" xmlns="http://www.w3.org/2000/svg">
<path fill-rule="evenodd" clip-rule="evenodd" d="M24 3L24.2189 3.26266C25.0854 3.26266 26.2166 3.81614 26.0798 5.42027V16.2177C25.8973 17.4654 24.7845 17.9156 24.1641 17.8125L24 18H26.6269H28.9471H30.2209C32.7082 18 34.6977 17.2612 36.2362 15.7207C37.5454 13.9483 37.7993 13.1041 38 11.2842C38 10.1201 37.7246 9.15229 37.4162 8.46991C37.0084 7.5668 36.223 6.78783 35.5308 6.20517C36.4489 7.49712 36.6506 8.78576 36.6506 10.0971C36.6506 11.6462 36.1741 13.8182 34.7598 15.2012C33.1956 16.7306 30.9231 17.1279 27.711 17.1279C27.711 16.5369 27.711 15.922 27.711 15.292C27.7108 14.6307 27.7108 13.9528 27.7108 13.2688V6.03054C27.7108 5.72297 27.7108 5.41402 27.7108 5.1128C27.7108 4.53246 27.7108 3.98086 27.7108 3.52326C28.61 3.52326 29.5317 3.5396 30.5927 3.59452C29.4575 3.2393 28.3366 3 27.544 3H25.9703C25.8625 3 25.7486 3.0027 25.6161 3.00586C25.2735 3.01402 24.8064 3.02513 24 3Z" fill="white"/>
<path d="M17.5708 11.7329L20.2565 5.26176V13.7747C20.2565 15.6037 20.2053 16.6403 20.1028 16.8846C20.0063 17.122 19.8042 17.5223 19.4245 17.7183C19.0446 17.9142 18.3935 17.7992 18.3935 17.7992L18.2308 18H21.2872H24L23.8734 17.7992C23.8734 17.7992 23.7295 17.8179 23.1906 17.7183C22.6516 17.6187 22.3796 17.2024 22.1463 16.8637C21.9656 16.6009 21.9065 15.9906 21.9656 13.9318V6.27745C21.9065 4.93887 21.9698 4.53 22.1416 4.21585C22.3135 3.90173 22.7747 3.26751 23.7241 3.26751L23.9911 3H21.7846H20.1841C19.1956 5.58286 18.3153 7.79226 17.5437 9.62819L15.3463 14.8742L12.9681 9.20935C12.0156 6.9476 11.1747 4.87781 10.4452 3C9.81225 3.04887 9.28764 3 8.94403 3C8.67275 3 8.04895 3.04887 7 3L7.47927 3.33323L7.82288 3.65969C8.28104 3.65969 8.24186 3.72251 8.39257 3.84816C8.54931 3.97381 8.63973 4.15531 8.66385 4.39265L9.57715 5.55494L12.8144 13.314C13.8694 15.8829 14.5084 17.3278 14.7314 17.9491H15.0931C15.7382 16.1341 16.5641 14.1622 17.5708 11.7329Z" fill="white"/>
<path d="M11.1098 3.53777C12.3361 6.57234 16.4054 17.0205 16.5355 17.4623C16.6284 17.7504 16.7585 17.8463 16.9257 17.8463H17V18H12.2618L12.3176 17.8655C12.6892 17.7502 13.0051 17.4431 13.0422 17.1933C13.0422 17.1358 13.0608 17.0781 13.0608 17.0397C13.0608 16.7516 12.9493 16.4827 12.8564 16.233C12.4476 15.1767 10.9983 11.5851 10.6081 10.6633L10.5338 10.4712L8.52702 5.01665C8.11825 3.97952 7.39359 3.32651 6.2973 3.21127C6.22298 3.21127 6 3 6 3H10.6267C10.7568 3 11.0355 3.36492 11.1098 3.53777Z" fill="#E20338"/>
<path d="M5.98181 11.2217C6.18181 10.7685 6.56364 10.2365 7 10C6.03637 10.6699 6.16366 15.1626 5.80003 17.1724C5.80003 17.1724 5.75948 17.4542 5.79999 17.6256C5.83781 17.7856 5.98181 18 5.98181 18H3C3.03636 17.862 5.25454 12.8768 5.98181 11.2217Z" fill="#E20338"/>
<path d="M30.8259 6.94949C30.5833 6.94949 30.3138 6.96632 30.0178 7C30.006 6.97981 30 6.9394 30 6.87879C30 6.81817 30.006 6.77441 30.0178 6.74748C30.1422 6.74748 30.2339 6.734 30.2931 6.70707C30.3523 6.6734 30.3879 6.64647 30.3997 6.62626C30.4293 6.54546 30.444 6.33671 30.444 6V5.13131C30.444 5.07744 30.4382 4.99662 30.4264 4.88888C30.4144 4.78114 30.4026 4.71381 30.3908 4.68686C30.3494 4.59933 30.225 4.55555 30.0178 4.55555C30.006 4.54882 30 4.51516 30 4.45454C30.006 4.3872 30.0149 4.35353 30.0267 4.35353C30.2517 4.33333 30.4707 4.28619 30.6839 4.21213C30.897 4.13131 31.0597 4.0606 31.1723 4C31.1901 4.00673 31.2108 4.02357 31.2344 4.05051C31.2582 4.07744 31.2669 4.09764 31.2611 4.11112C31.2373 4.22559 31.2226 4.32323 31.2166 4.40404C31.2108 4.48486 31.2108 4.52525 31.2166 4.52525C31.2226 4.52525 31.2284 4.52189 31.2344 4.51516C31.2404 4.50841 31.2493 4.50168 31.2611 4.49495C31.3439 4.3872 31.4447 4.29293 31.5631 4.21213C31.7703 4.07071 31.9539 4 32.1137 4C32.2795 4 32.4156 4.04041 32.5222 4.12121C32.6347 4.20202 32.7264 4.35017 32.7975 4.56566C32.8093 4.56566 32.83 4.54882 32.8596 4.51516C32.8892 4.47475 32.9395 4.42424 33.0107 4.36363C33.0875 4.30303 33.1705 4.24579 33.2593 4.19191C33.4725 4.06398 33.6501 4 33.7921 4C33.9401 4 34.0645 4.03368 34.1651 4.10101C34.2717 4.16161 34.3516 4.25589 34.4049 4.38385C34.5055 4.6128 34.5559 5.00673 34.5559 5.56566V6C34.5559 6.14815 34.5559 6.27273 34.5559 6.37374C34.5618 6.47475 34.5736 6.54882 34.5914 6.59596C34.6092 6.63637 34.6328 6.66667 34.6624 6.68686C34.698 6.70034 34.7365 6.71381 34.7779 6.72727C34.8371 6.74073 34.9052 6.74748 34.9822 6.74748C34.994 6.77441 35 6.81817 35 6.87879C35 6.9394 34.994 6.97981 34.9822 7C34.6862 6.96632 34.4286 6.94949 34.2096 6.94949C33.9964 6.94949 33.7418 6.96632 33.4458 7C33.434 6.97981 33.428 6.9394 33.428 6.87879C33.428 6.81817 33.434 6.77441 33.4458 6.74748C33.4814 6.74748 33.5375 6.74073 33.6145 6.72727C33.6915 6.70707 33.736 6.6734 33.7478 6.62626C33.7774 6.55892 33.7921 6.47475 33.7921 6.37374C33.7981 6.27273 33.801 6.14815 33.801 6V5.47475C33.801 5.05051 33.73 4.7643 33.5878 4.61617C33.5406 4.5623 33.4814 4.53535 33.4102 4.53535C33.3452 4.53535 33.28 4.54882 33.2148 4.57576C33.1498 4.60269 33.0906 4.63299 33.0372 4.66667C32.913 4.75421 32.8507 4.83165 32.8507 4.89899V4.9394C32.8685 5.13469 32.8774 5.34344 32.8774 5.56566V6C32.8774 6.33671 32.8863 6.53198 32.9041 6.58585C32.9217 6.63299 32.9455 6.66667 32.9751 6.68686C33.0107 6.70034 33.049 6.71381 33.0906 6.72727C33.1498 6.74073 33.2148 6.74748 33.286 6.74748C33.2978 6.77441 33.3036 6.81817 33.3036 6.87879C33.3036 6.9394 33.2978 6.97981 33.286 7C32.9898 6.96632 32.7264 6.94949 32.4956 6.94949C32.2942 6.94949 32.0456 6.96632 31.7496 7C31.7376 6.97981 31.7318 6.9394 31.7318 6.87879C31.7318 6.81817 31.7376 6.77441 31.7496 6.74748C31.791 6.74748 31.8502 6.74073 31.9272 6.72727C32.01 6.70707 32.0603 6.66667 32.0781 6.60606C32.1019 6.53198 32.1137 6.32996 32.1137 6V5.47475C32.1137 4.84849 31.9835 4.53535 31.7229 4.53535C31.6103 4.53535 31.5128 4.56566 31.4298 4.62626C31.2818 4.74748 31.2077 4.84174 31.2077 4.9091V6C31.2077 6.33671 31.2166 6.53198 31.2344 6.58585C31.2522 6.63299 31.2758 6.66667 31.3054 6.68686C31.335 6.70034 31.3677 6.71381 31.4031 6.72727C31.4623 6.74073 31.5246 6.74748 31.5896 6.74748C31.6016 6.77441 31.6074 6.81817 31.6074 6.87879C31.6074 6.9394 31.6016 6.97981 31.5896 7C31.2936 6.96632 31.039 6.94949 30.8259 6.94949Z" fill="white"/>
<path d="M35.6565 5.08638C35.6666 5.08638 35.6997 5.08638 35.7557 5.08638C35.8168 5.07974 35.8829 5.07309 35.9543 5.06645C36.1171 5.05981 36.2341 5.04984 36.3053 5.03655C36.3512 5.02991 36.374 4.99335 36.374 4.92691C36.374 4.85383 36.369 4.77742 36.3588 4.69768C36.3485 4.61795 36.3307 4.54818 36.3053 4.48839C36.2494 4.34221 36.1756 4.26911 36.084 4.26911C35.9975 4.26911 35.9288 4.30233 35.8778 4.36877C35.8269 4.42857 35.7837 4.50167 35.7481 4.58804C35.6871 4.7608 35.6565 4.92691 35.6565 5.08638ZM36.8625 5.26579C36.5572 5.299 36.1552 5.32559 35.6565 5.34551C35.6565 5.75083 35.7429 6.04983 35.916 6.24253C36.0484 6.38206 36.1909 6.45183 36.3435 6.45183C36.5013 6.45183 36.6234 6.41527 36.7099 6.34219C36.7965 6.26911 36.8676 6.19601 36.9237 6.12293C36.9644 6.13621 36.9847 6.17276 36.9847 6.23255C36.9847 6.29237 36.9746 6.34219 36.9541 6.38206C36.939 6.41527 36.9059 6.46845 36.855 6.54153C36.8041 6.60797 36.7404 6.67443 36.6641 6.74087C36.4707 6.91362 36.285 7 36.1069 7C35.9288 7 35.776 6.9701 35.6488 6.9103C35.5216 6.84385 35.4097 6.75084 35.3129 6.63123C35.1044 6.37209 35 6.03655 35 5.62459C35 5.19935 35.1119 4.82724 35.3359 4.50831C35.575 4.16944 35.8346 4 36.1146 4C36.4147 4 36.6437 4.11628 36.8015 4.34885C36.9338 4.53488 37 4.75083 37 4.99668C37 5.06976 36.9872 5.13289 36.9618 5.18605C36.9363 5.2392 36.9032 5.26579 36.8625 5.26579Z" fill="white"/>
<path d="M39.8588 5.8618V5.76679C39.8588 5.74375 39.8498 5.738 39.8313 5.74951C39.8129 5.76102 39.7792 5.78118 39.7301 5.80997C39.681 5.83877 39.6227 5.86756 39.5553 5.89635C39.2424 6.0288 38.951 6.03168 38.681 5.905C38.4049 5.78406 38.2087 5.57675 38.092 5.28308C38.0307 5.1391 38 4.96635 38 4.76481C38 4.5575 38.0553 4.36747 38.1658 4.19472C38.2822 4.0162 38.4234 3.86936 38.5889 3.75418C38.7547 3.63902 38.9265 3.55551 39.1043 3.50369C39.2883 3.44611 39.4479 3.41731 39.5828 3.41731C39.7179 3.41731 39.8007 3.4202 39.8313 3.42595C39.8498 3.42595 39.8588 3.38276 39.8588 3.29638V2.77812C39.8588 2.65719 39.8466 2.56506 39.8221 2.5017C39.8037 2.46715 39.7454 2.44124 39.6473 2.42397C39.5553 2.4067 39.4908 2.39806 39.4541 2.39806C39.4417 2.39806 39.4356 2.37214 39.4356 2.32032C39.4356 2.26272 39.4417 2.22819 39.4541 2.21666C39.7975 2.18788 40.0767 2.14468 40.2914 2.0871C40.5061 2.02375 40.6196 1.99496 40.632 2.00072C40.6502 2.00072 40.6687 2.01223 40.6871 2.03527C40.7055 2.0583 40.7147 2.07846 40.7147 2.09574C40.6718 2.25697 40.6502 2.44701 40.6502 2.66582V5.34353C40.6502 5.3896 40.6502 5.42991 40.6502 5.46446C40.6564 5.49902 40.6749 5.53068 40.7055 5.55948C40.7424 5.59404 40.8344 5.61131 40.9816 5.61131C40.9938 5.63433 41 5.66602 41 5.70633C41 5.74087 40.9878 5.77255 40.9631 5.80133C40.8527 5.80709 40.6963 5.83302 40.4939 5.87908C40.1318 5.95969 39.9356 6 39.9049 6C39.8742 6 39.8588 5.95393 39.8588 5.8618ZM39.4723 5.63722C39.5583 5.63722 39.6441 5.61131 39.7301 5.55948C39.8159 5.50766 39.8588 5.46446 39.8588 5.42991V3.96149C39.8588 3.90967 39.8129 3.85496 39.7209 3.79738C39.6289 3.73403 39.5245 3.70236 39.408 3.70236C39.2975 3.70236 39.2085 3.72827 39.1412 3.78009C39.0736 3.82616 39.0185 3.88951 38.9754 3.97013C38.9018 4.12561 38.865 4.34443 38.865 4.62661C38.865 4.90301 38.9173 5.14199 39.0215 5.34353C39.132 5.53933 39.2823 5.63722 39.4723 5.63722Z" fill="white"/>
<path d="M42.58 4.11112C42.5653 4.14478 42.5396 4.26936 42.5028 4.48486V6C42.5028 6.33671 42.5138 6.53198 42.5358 6.58585C42.5579 6.63299 42.5875 6.66667 42.6243 6.68686C42.6611 6.70034 42.7016 6.71381 42.7458 6.72727C42.8195 6.74073 42.8968 6.74748 42.9779 6.74748C42.9926 6.77441 43 6.81817 43 6.87879C43 6.9394 42.9926 6.97981 42.9779 7C42.6094 6.96632 42.2927 6.94949 42.0277 6.94949C41.7256 6.94949 41.3904 6.96632 41.0221 7C41.0074 6.97981 41 6.9394 41 6.87879C41 6.81817 41.0074 6.77441 41.0221 6.74748C41.1769 6.74748 41.291 6.734 41.3646 6.70707C41.4383 6.6734 41.4825 6.64647 41.4972 6.62626C41.5341 6.54546 41.5526 6.33671 41.5526 6V5.13131C41.5526 5.07744 41.5451 4.99662 41.5304 4.88888C41.5157 4.78114 41.5009 4.71381 41.4862 4.68686C41.4347 4.59933 41.2799 4.55555 41.0221 4.55555C41.0074 4.54882 41 4.51516 41 4.45454C41.0074 4.3872 41.0185 4.35353 41.0332 4.35353C41.3131 4.33333 41.5856 4.28619 41.8508 4.21213C42.116 4.13131 42.3186 4.0606 42.4585 4C42.4806 4.00673 42.5064 4.02357 42.5358 4.05051C42.5653 4.07744 42.58 4.09764 42.58 4.11112Z" fill="white"/>
<path d="M44.3723 6.54153C44.4645 6.54153 44.5355 6.52491 44.5851 6.4917C44.6418 6.45183 44.6703 6.42193 44.6703 6.40201V5.48504C44.5922 5.51827 44.5107 5.5515 44.4256 5.58471C44.3475 5.6113 44.2659 5.65117 44.1809 5.70432C44.0249 5.80399 43.9469 5.93687 43.9469 6.103C43.954 6.26911 44.0036 6.38539 44.0958 6.45183C44.1879 6.51163 44.2801 6.54153 44.3723 6.54153ZM45.9467 6.44186C45.9822 6.4618 46 6.4917 46 6.53157C46 6.57143 45.9893 6.6113 45.968 6.65117C45.9256 6.69104 45.851 6.7442 45.7446 6.81064C45.5532 6.93023 45.3936 6.99005 45.2659 6.99005C45.1384 6.99005 45.0214 6.95682 44.9148 6.89038C44.8156 6.81728 44.7482 6.74087 44.7127 6.66114C44.6135 6.75415 44.4717 6.83389 44.2873 6.90033C44.11 6.96679 43.9716 7 43.8725 7C43.7731 7 43.6667 6.97674 43.5532 6.93023C43.4398 6.88374 43.3441 6.82392 43.266 6.75084C43.0887 6.58473 43 6.4186 43 6.25249C43 6.08638 43.0355 5.95682 43.1064 5.86379C43.1844 5.76412 43.2625 5.70432 43.3404 5.68438C43.4255 5.65781 43.5214 5.62458 43.6277 5.58471C43.7411 5.54486 43.8618 5.50166 43.9895 5.45514C44.1524 5.40199 44.3795 5.32226 44.6703 5.21595V4.90697C44.6703 4.74086 44.6312 4.59135 44.5533 4.45847C44.4752 4.31893 44.3723 4.24916 44.2446 4.24916C44.117 4.24916 44.0249 4.30232 43.9682 4.40863C43.9186 4.51494 43.8829 4.62458 43.8618 4.73753C43.805 4.9701 43.6667 5.08638 43.4468 5.08638C43.3546 5.08638 43.2695 5.0598 43.1916 5.00664C43.1205 4.94684 43.0851 4.88372 43.0851 4.81728C43.0851 4.72425 43.117 4.61794 43.181 4.49834C43.2588 4.42524 43.3865 4.34552 43.5638 4.25914C43.9255 4.08637 44.2483 4 44.532 4C44.8228 4 45.0673 4.09303 45.2659 4.27906C45.4716 4.46512 45.5745 4.70764 45.5745 5.00664V6.23257C45.5745 6.32559 45.5922 6.39535 45.6276 6.44186C45.6631 6.48173 45.7022 6.50166 45.7446 6.50166C45.7942 6.50166 45.8369 6.4917 45.8723 6.47176L45.9467 6.44186Z" fill="white"/>
<path d="M42.1368 2.14736C42.0456 2.2386 42 2.35438 42 2.49474C42 2.63508 42.0456 2.75438 42.1368 2.85264C42.235 2.95088 42.3544 3 42.4948 3C42.635 3 42.7544 2.95088 42.8526 2.85264C42.9508 2.75438 43 2.63508 43 2.49474C43 2.35438 42.9508 2.2386 42.8526 2.14736C42.7544 2.04912 42.635 2 42.4948 2C42.3544 2 42.235 2.04912 42.1368 2.14736Z" fill="#E20338"/>
</svg>
