<svg xmlns="http://www.w3.org/2000/svg" viewBox="0 0 147.33 46.18"><defs><style>.cls-1{fill:#485368;}</style></defs><title>Ресурс 9</title><g id="Слой_2" data-name="Слой 2"><g id="Layer_1" data-name="Layer 1"><path class="cls-1" d="M146.94,44.16a10,10,0,0,0-1.26-2.89c-.58-.89-1.5-1.1-2.36-1.8l-1.83-1.62a26.42,26.42,0,0,0-2.56-2.33,5.76,5.76,0,0,0-1.09-1.2l-2.63-2.2a15.53,15.53,0,0,1-1.76-1.46l-1.79-1.54-.73-.8-1.06-1.58-.71-1.37a5.57,5.57,0,0,0-.34-1.05l-.11-1.39a2.83,2.83,0,0,1,.3-1.07,6.76,6.76,0,0,0,.6-1.1l0-.12c.16-.33.67-1.15.8-1.38l.53-.79.72-.8,1.79-1.54a15.53,15.53,0,0,1,1.76-1.46l2.64-2.2a6,6,0,0,0,1.08-1.2,27.9,27.9,0,0,0,2.7-2.34l1.83-1.62a10.25,10.25,0,0,0,2.17-2.4A9.78,9.78,0,0,0,147,2l.25-.16.13-.51a.77.77,0,0,0-.17-.45,1.39,1.39,0,0,0-.56-.43,11.18,11.18,0,0,0-3-.47L73.67.57,3.74,0A10.16,10.16,0,0,0,.85.47,1.67,1.67,0,0,0,.23.9a.82.82,0,0,0-.2.45l.11.51L.39,2A9.78,9.78,0,0,0,1.66,4.91C2.24,5.8,3.15,6,4,6.71L5.84,8.33a26.64,26.64,0,0,0,2.57,2.33,5.73,5.73,0,0,0,1.08,1.2l2.64,2.19a18,18,0,0,1,1.75,1.47l1.8,1.54.72.8,1.06,1.58.71,1.36a5.44,5.44,0,0,0,.34,1.06l.11,1.38a2.83,2.83,0,0,1-.3,1.08,6.37,6.37,0,0,0-.6,1.1l0,.11c-.16.34-.67,1.16-.8,1.39l-.52.79-.73.8-1.79,1.54a18,18,0,0,1-1.76,1.46L9.43,33.7a6.3,6.3,0,0,0-1.08,1.2,29.48,29.48,0,0,0-2.7,2.35L3.82,38.87a10.47,10.47,0,0,0-2.17,2.4A9.51,9.51,0,0,0,.39,44.16l-.26.16-.13.5a.82.82,0,0,0,.17.46,1.48,1.48,0,0,0,.56.43,11.18,11.18,0,0,0,3,.47l69.93-.58,69.92.58a10.16,10.16,0,0,0,2.89-.47,1.79,1.79,0,0,0,.62-.43.88.88,0,0,0,.2-.46l-.11-.5Zm-2.83-41.4c-1,1.31-4.28,3.51-5.48,4.64-.53.37-.84,1.22-1.45,1.47l-.68.1.85-2A5.07,5.07,0,0,1,138.74,5C139.48,4.18,140.33,2.28,144.11,2.76Zm-5.28-.48c-.64,1-2.43,4.07-3.33,5.89l-.2.47a15.77,15.77,0,0,0-1.05,2,13.9,13.9,0,0,1-1.54,2.67,10.88,10.88,0,0,1-2,2,10.12,10.12,0,0,1-3,1.68,29.13,29.13,0,0,0,1.88-2.61,26.77,26.77,0,0,0,1.61-2.84,27.09,27.09,0,0,1,3.27-4.89c.81-1,1.81-3.31,2.77-4.1ZM10.41,8.33A8.82,8.82,0,0,1,8.7,7.4C7.5,6.27,4.41,4.06,3.36,2.76c1.43,0,4.27.38,5.23,2.27A5.09,5.09,0,0,1,10,6.93l.87,1.38Zm6.21,7a10.53,10.53,0,0,1-2-2,13.42,13.42,0,0,1-1.55-2.67,15.77,15.77,0,0,0-1.05-2l-.2-.47c-.9-1.82-2.4-4.34-3-5.32l1.5.29c1,.8,1.72,2.49,2.53,3.48a26.58,26.58,0,0,1,3.27,4.89,26.77,26.77,0,0,0,1.61,2.84A27.38,27.38,0,0,0,19.59,17,10,10,0,0,1,16.62,15.28ZM3.22,43.41c1-1.3,4.28-3.51,5.48-4.64.53-.37.84-1.21,1.45-1.46l.68-.1-.84,2a5.09,5.09,0,0,1-1.4,1.9C7.85,42,7,43.9,3.22,43.41Zm5.28.49c.64-1,2.43-4.07,3.33-5.89l.2-.47a15.77,15.77,0,0,0,1.05-2,13.23,13.23,0,0,1,1.55-2.68,11.14,11.14,0,0,1,2-2,10,10,0,0,1,3-1.67,26.17,26.17,0,0,0-1.89,2.61,27.67,27.67,0,0,0-1.61,2.83,26.31,26.31,0,0,1-3.27,4.9c-.81,1-1.81,3.31-2.77,4.1ZM132.32,42a5,5,0,0,1-1.73-2q-1.25-2.41-2.72-4.94l-5.62-8.15,9.51,16.2a3.72,3.72,0,0,1-3.82-1.94l-2.81-4.72c-1.22-1.84.07,1.45.74,2.74s1.35,2.52,1.94,3.8a9.31,9.31,0,0,0-3,0l-4.52.3-.23-.09-1.6-.14c-.62-.18-40.57.76-44.82.52h0c-4.26.28-43.72-.23-44.34-.06l-2-.33-.29.09-3.66.34a16.16,16.16,0,0,0-4.14.24c.6-1.28,1.5-3.44,2.2-4.69s2-4.58.74-2.74l-2.82,4.72c-.82,1.36-2.74,3.32-4.15,3l9.84-17.21L19.46,35Q18,37.55,16.74,40a11.8,11.8,0,0,1-2.67,3.15,3.31,3.31,0,0,1-2.18.63l6.69-11a57.63,57.63,0,0,0,2.88-5.6c1.79-3,.2-8.3.06-8.36-2.2-3.42-2.38-3.64-4.42-7.16L12.23,3.14a5.65,5.65,0,0,1,2.78,1,5,5,0,0,1,1.73,2Q18,8.63,19.46,11.15l5.62,8.15L15.58,3.1A3.69,3.69,0,0,1,19.39,5L22.2,9.76c1.22,1.83-.07-1.45-.74-2.74s-1.34-2.52-1.94-3.8a9.31,9.31,0,0,0,3,0L27,2.9l.23.09,1.6.15c.62.18,40.57-.77,44.83-.53h0c4.25-.29,43.71.23,44.33.06L120,3l.29-.09,3.66-.33a16.16,16.16,0,0,0,4.14-.24c-.6,1.28-1.5,3.44-2.2,4.69s-2,4.57-.74,2.74L127.94,5c.82-1.37,2.74-3.32,4.15-3L122.25,19.3l5.62-8.15q1.47-2.52,2.72-4.94a11.85,11.85,0,0,1,2.67-3.16,3.37,3.37,0,0,1,2.18-.63l-6.69,11A57,57,0,0,0,125.87,19c-1.79,3-.2,8.3-.05,8.36,2.19,3.42,2.37,3.64,4.41,7.16L135.1,43A5.59,5.59,0,0,1,132.32,42ZM137,43c-1-.79-1.72-2.49-2.53-3.47a26.82,26.82,0,0,1-3.27-4.9,30.26,30.26,0,0,0-3.49-5.44,10.09,10.09,0,0,1,3,1.67,11.53,11.53,0,0,1,2,2,13.68,13.68,0,0,1,1.54,2.68,15.77,15.77,0,0,0,1.05,2l.2.47c.9,1.82,2.4,4.34,3,5.31Zm1.7-1.88a5.07,5.07,0,0,1-1.39-1.9l-.88-1.38.45,0a8.78,8.78,0,0,1,1.71.92c1.2,1.13,4.29,3.35,5.34,4.65C142.54,43.42,139.7,43,138.74,41.15Z"/></g></g></svg>