<?xml version="1.0" encoding="utf-8"?>
<!-- Generator: Adobe Illustrator 24.1.2, SVG Export Plug-In . SVG Version: 6.00 Build 0)  -->
<svg version="1.1" id="Слой_1" xmlns="http://www.w3.org/2000/svg" xmlns:xlink="http://www.w3.org/1999/xlink" x="0px" y="0px"
	 viewBox="0 0 490 129.3" style="enable-background:new 0 0 490 129.3;" xml:space="preserve">
<style type="text/css">
	.st0{fill-rule:evenodd;clip-rule:evenodd;fill:#485368;}
	.st1{enable-background:new    ;}
	.st2{fill:#485368;}
</style>
<g id="Слой_2_1_">
	<g id="Layer_1">
		<path class="st0" d="M304.2,0.9c15.3,1.7,73.9,7.4,88.5,9.4c2,0.2,3.9,0.5,5.9,0.9c8.4,0.9,15.4,3.2,21.1,6.8
			c2.8,1.9,5.2,4.1,7.3,6.8c6.1,7.8,5.8,16.8-0.9,27.1c3.1,0.1,6.2-0.4,9.1-1.4c2.8-1.1,5.8-1.7,8.9-1.9c4.5,0.3,11,2.4,19.4,6.3
			c8.6,4.2,14.7,6.5,18.5,7c1.6,0.1,3.2-0.2,4.7-0.7c1.1-0.3,2.4-0.3,3.5,0c-4.5,4.2-12,8-22.5,11.5c-5.8,1.7-9.8,3.2-11.9,4.4
			c-4.1,1.3-7.9,3.4-11.2,6.1c0.3,0.5,1.3,2.4,2.8,5.8c1,2.1,1.5,4.4,1.6,6.8c-1.4,0.8-2.8,1.7-4,2.8c-1.2,1.2-1.7,3-1.4,5.4
			c1.3,1.1,3,1.6,4.7,1.4c1.5-0.3,2.9-0.5,4.4-0.7c1.4,6.5,2.7,11.1,4,13.6c2.5,4.4,6.5,7.2,11.9,8.4c-4.1,3.6-11.3,3.4-21.8-0.7
			c-2.7-1.2-7-3.6-13.1-7c-4.1-2.6-8.5-4.8-13.1-6.6c-7.5-2.2-15.4-2.9-23.2-2.1l-9.8,1.2c-3.6,0.2-7.2-0.1-10.8-0.7
			c-1.7-3.6-1.3-7.9,1.4-13.1c2.7-4,5.1-8.1,7.3-12.4l-7.5-0.5c-8.3-1.4-16.5-3.5-24.6-6.1c-7.5-2.2-17.5,4-30,1.2l-1.6-7.5
			l-4.2,5.8c-14-2.8-28.1-4.3-42.4-4.7l-22.9-0.5c-14.5,0-28.9,0.1-43.3,0.2c-12.5,0.6-24.9,2.5-37,5.6c-1.9-3.6-2.9-5.4-3-5.6
			c-0.2-0.2-0.5-0.3-0.7-0.2c-0.3,0-0.6,0.1-0.9,0.2c-0.2,0.2-0.5,2.6-1.2,7.5c-13.9,4.1-28.1-1.5-42.6,0.7
			c-6.7,1.1-13.4,1.9-19.9,2.4c0.8,2.3,2.9,6.4,6.5,12.2c2.7,5.3,3.1,9.9,1.2,13.6c-3.6,0.5-7.2,0.5-10.8,0l-9.8-1.4
			c-7.7-1.3-15.6-0.9-23.2,1.2c-4.6,1.5-9.1,3.5-13.3,5.9c-6.4,3.1-10.9,5.1-13.6,6c-10.6,4.2-17.9,4.2-21.8,0
			c5.8-0.9,9.8-3.6,12.2-8c1.5-2,3.1-6.4,4.7-13.3c1.6,0.2,3.1,0.5,4.7,0.9c1.5,0.3,3.1-0.1,4.2-1.2c0.7-1.9,0.2-4.1-1.2-5.6
			c-1.2-1.2-2.5-2.1-4-2.8c0.5-2.2,1.3-4.3,2.3-6.3c1.7-3.7,2.6-5.7,2.6-5.8c-3-2.9-6.6-5.2-10.5-6.7c-3.8-1.9-7.7-3.6-11.7-4.9
			C11.8,63.7,4.4,59.6,0,55.4c1.2-0.3,2.5-0.3,3.7,0c1.5,0.6,3.1,0.8,4.7,0.7c3.7-0.2,10-2.1,18.7-5.8c8.4-3.4,14.9-5.2,19.4-5.2
			c3,0.1,6,0.8,8.9,1.9c2.9,1,6,1.5,9.1,1.6c-6.2-10.6-6.2-19.7,0-27.4c2.2-2.6,4.9-4.8,8-6.3c5.5-3.4,12.6-5.4,21.3-5.9
			c2.3-0.4,4.7-0.7,7-0.9c5.6-0.5,9.8-0.9,12.6-1.4c3.8-1.2,7.8-2.2,11.7-3C139.9,0.6,289.1-1.1,304.2,0.9z M132,5.8l0.7,1.9
			c6.2,11.4,5,11.7-3.8,0.9c-3.7,0.5-6.2,0.7-7.5,0.7c-0.3,0.6,0.3,1.9,1.9,4c1.7,2,2.1,3.6,1.2,4.7c-2.3-3.6-6.1-5.9-10.3-6.3
			c-3.1-0.3-9.2,0-18.3,0.9c-6.9,0.6-11.8,1.6-14.8,3.1c-4.2,1.9-6.3,4.4-6.3,7.7c-0.1,3.9,1.3,7.7,4,10.5c1.3,1.2,2.6,2.4,3.7,3.7
			c1.3,1.5,2.5,3.2,3.5,4.9c-3.1-2.8-5.6-5.1-7.5-7c-3.3-3.3-5.1-6.2-5.6-8.9c-0.3-1.1,0-3,0.9-5.6c0.9-2.3,0.9-3.4-0.2-3
			c-3.8,2.1-6.8,5.3-8.7,9.1c-2,4.8-1.7,9,0.9,12.4c-0.6-4.4,0.7-7,4-8c-0.6,0.9-0.7,1.7-0.2,2.3c0.7,0.5,1.3,1.2,1.9,1.9
			c-2.3-1.9-3.7-1.2-4,2.1c-0.4,2.7,0.3,5.5,1.9,7.7c0.2-0.7,0.5-1.5,0.9-2.1c0.6-1.1,1-1.1,1.2,0c-0.8,1.4-0.8,3.9-0.2,7.5
			c0.8,3,1.6,4.9,2.6,5.8c0.6,0.3,1.3-0.2,1.9-1.4c0.5-1.6,1.3-2,2.6-1.4c-2,3.1-2.4,7-1.2,10.5c0.6,0.8,1.1,0.6,1.4-0.7
			c0.6-1.7,1.3-2,2.1-0.9c0,0.2-0.3,1.4-0.9,3.8c-0.3,1.4-0.1,2.9,0.5,4.2c0.9,0.6,2,0,3.3-1.9c1.3-2,2.3-2.7,3-2.1
			c-0.2,1-0.6,1.9-1.2,2.8c-0.3,0.8-0.8,1.8-1.4,3c-1.2,2.7-1.1,4.9,0.5,6.8c-0.3-0.9,0.2-1.7,1.7-2.3c1.9-0.9,2.9-1.7,3-2.3
			c0.1,1.3-0.3,2.5-1.1,3.5c-0.6,1.2-0.5,2.2,0.5,2.8c2,1,4.2,1.1,6.3,0.5c2.2-0.8,4.5-1.4,6.8-1.9c4.7-0.8,12-1.6,22-2.6
			c12.2-2.5,24.3,3,36.3-0.7c1.1-0.5,2.3-0.9,3.5-1.2l2.6-7.7L147.6,65l25-1.4l0.2,1.2l-5.6,2.6c0.7,0.3,1.3,0.7,1.9,1.2l0.9,0.9
			c0.3,0.3,0.5,0.6,0.7,0.9c0.3,0.4,0.6,0.8,0.9,1.2c0.2,0.5,0.5,0.9,0.9,1.2l2.1-0.9l0.7,1.4c16.8-2.5,33.8-3.7,50.8-3.7
			c4.1,0.2,8.2,0.2,12.4,0.2h12.2l63.7,1.9l0.5-0.9l2.3,1.2l0.7-1.4c0.5-0.5,1-1.1,1.4-1.6c0.4-0.4,0.9-0.7,1.4-0.9l1-0.9l0.9-0.5
			l19.4,7.3l-17.8-7l2.1,8c12.8,5.9,26,1.4,39.8,3.8c4.1,0.6,8,1.1,11.7,1.4c4.1,0.9,7.3,1.6,9.8,1.9c1.7,0.5,4,1.3,6.8,2.3
			c2,0.7,4.1,0.4,5.9-0.7c1.3-0.6,1.6-1.5,1-2.6c-0.7-1-1-2.3-1-3.5c0.2,0.8,1.1,1.6,2.8,2.3c1.4,0.5,2,1.3,1.6,2.6
			c1.7-1.7,1.9-3.9,0.7-6.6c-0.4-1.1-0.8-2.2-1.4-3.3c-0.5-0.9-0.8-1.8-0.9-2.8c1.1-0.9,2-0.3,2.8,1.9c1.2,2.2,2.3,2.9,3.3,2.1
			c1-1.3,1.3-3,0.8-4.5c-0.6-2-0.9-3.1-0.9-3.3c1.1-1.1,1.8-0.9,2.1,0.5c0.5,1.3,0.9,1.7,1.2,1.4c1.7-3.4,1.6-7.5-0.5-10.8
			c1.2-0.5,2,0,2.3,1.4c0.5,1.3,1,1.8,1.6,1.6c1.3-0.8,2.3-2.7,3-5.8c1.1-3.6,1.2-6.2,0.2-7.7c0.3-0.6,0.8-0.5,1.4,0.2
			c0.3,0.7,0.4,1.4,0.5,2.1c1.7-1.7,2.5-4.3,2.3-7.7c0-3.3-1.2-4-3.7-2.1c0.6-0.5,1.1-1.2,1.4-1.9c0.6-0.5,0.6-1.4,0.1-2
			c0,0-0.1-0.1-0.1-0.1c3.3,1.1,4.6,3.7,4,7.7c2.8-3.4,3.3-7.4,1.4-11.9c-1.7-4-4.7-7.4-8.5-9.6c-0.8-0.2-0.9,0.8-0.5,2.8
			c0.9,2.8,1.2,4.7,0.7,5.9c-0.5,2.7-2.5,5.5-6.1,8.6c-2.3,2.4-4.7,4.7-7.2,6.8c0.8-1.7,1.9-3.3,3.3-4.7c1.7-1.7,3.1-3,4-3.7
			c3.1-3.1,4.7-6.5,4.7-10.1c0-3.1-1.6-5.6-4.7-7.5c-7.2-2-10.8-3-11-2.8c-0.3,0.5-0.8,0.5-1.4,0.2C353.9,1.7,147.4,2.4,132,5.8z
			 M445.1,92.1c-1-1.6-1.8-3.3-2.4-5.1c-0.9-1.7-1.4-3.7-1.6-5.6c9.7-7.8,22.2-13.4,37.7-16.9c-1.7-0.5-6.8-2.6-15.2-6.3
			c-4.8-2-9.9-3.6-15-4.7c-5.5-0.8-11.2,0.2-16.1,2.8c-5.1,3-8.7,6.9-10.5,11.7v8.2c-0.3,3-1,5.9-2.1,8.7c-0.6,1.7-1.4,4.5-2.3,8.2
			c-2.3,6.2-2.8,10.7-1.4,13.3c5.1,1.5,11.9,4.6,20.4,9.1c6.5,3.7,13.2,6.9,20.1,9.6c-1.5-2.2-2.9-4.6-4-7c-1.5-2.5-2.5-5.3-2.8-8.2
			c-1.9,0.3-3.9-0.1-5.6-1.2c-1.5-1-2.9-2.3-4-3.8c-0.1-2.5,0.3-5.1,1.2-7.5C442.2,95.6,443.5,93.7,445.1,92.1L445.1,92.1z
			 M364.1,34.6l8.7,1.2c1.1-0.5,2.3-1.8,3.5-4c1.1-2.7,2-4.6,2.6-5.9c1.4,0.6,2.2,2.5,2.3,5.6c0,3.3,0.5,5.3,1.6,6.1
			c1.9,0.2,3.8,0.6,5.6,1.2c1.4,0.4,2.9,0.6,4.4,0.7c-1.4,1.3-3.1,2.4-4.9,3c-1.8,0.7-3.5,1.8-4.9,3c0.4,1.8,0.7,3.7,0.7,5.6
			c0.5,2.7,0.8,4.6,0.9,5.8c-1.7-0.9-3.1-2.2-4.2-3.7c-1.3-1.5-2.8-2.9-4.5-4c-1.1,0.2-2.6,1.1-4.7,2.8c-1.5,1.1-3.3,1.8-5.2,1.9
			c0.8-3.2,2.2-6.3,4.2-8.9c0-1.9-1-3.7-3-5.4C365.2,37.9,364.1,36.2,364.1,34.6z M414.2,107.4c0.3-0.4,0.3-1,0-1.4
			c-0.1-0.6-0.1-1,0-1.2c-0.9,0-1.4,0.2-1.4,0.7c-0.5,0.2-0.5,0.6,0,1.4L414.2,107.4z M406.9,93.8c-0.3,0-0.6,0.1-0.9,0.2
			c-0.5,0.2-0.9,0.6-0.9,1.2c-1.3,1.1-2.8,1.9-4.5,2.3c-0.8,0.2-2.2,0.4-4.2,0.7c-3.7,1.1-6.2,3-7.5,5.6c2.5-1.3,4.3-2.2,5.4-2.8
			c1.6-0.8,3.4-1.5,5.1-1.9c0.5-0.2,0.9-0.5,1.2-0.9C403,97.1,405.1,95.6,406.9,93.8L406.9,93.8z M416.1,85.4v0.7
			c-1.8,1.5-3.8,2.8-5.9,4c-0.2,0.2-0.3,0.4-0.5,0.7c0.6-0.3,1.1-0.3,1.4,0c-0.3,1.4-1.4,2.8-3.3,4.2c-1.5,1.2-3,2.3-4.7,3.3
			c-1.5,1.1-3,2-4.7,2.8c-0.9,0.8-1.9,1.3-3,1.4c-0.2,0-0.5,0.1-0.7,0.2c-1.9,0.8-3,2.9-2.6,4.9c2.9-0.3,5.7-1.2,8.2-2.8
			c4.7-2.8,7.2-4.2,7.5-4.2c-1.6,1.8-3.6,3.3-5.9,4.4c0.2,0.5,0.9,0.4,2.1-0.2c2-1.3,3-2,3-2.1c1.1,0.8,0.1,1.8-3,3
			c1.7,0.5,3.5,0.4,5.1-0.2c1.7-1,3.5-1.8,5.4-2.6c-0.5-0.3-0.6-1.9-0.5-4.7c0.5-2.2,0.1-3-1.2-2.6c1.4-0.6,2.3-2.5,2.8-5.6
			c0.6-3.4,1.3-5.1,2.1-5.2c-0.3-1.7-0.7-2-1.2-0.9C416.6,84.4,416.4,84.9,416.1,85.4L416.1,85.4z M402.3,83.3
			c-0.7-0.1-1.4,0.1-1.9,0.7c-0.5,0.5-1.2,0.8-1.9,0.9c0.3,1.1,1,1.3,2.1,0.7C401.7,85.3,402.4,84.3,402.3,83.3L402.3,83.3z
			 M419.6,62.2c0.4-0.1,0.8-0.3,1.2-0.5c0.4-0.2,0.8-0.4,1.2-0.5c-3.3,3-6.2,7.4-8.7,13.3c-1.4,3.3-3.1,8.1-5.1,14.5
			c2.3-0.7,4.3-2,5.9-3.7c1.6-1.7,3.3-3.3,5.1-4.7c-0.3-5.5,0.9-10.9,3.5-15.7c2.7-5.3,6.3-8.5,10.8-9.6c-0.6-0.6-2-0.6-4.2,0
			c-2.8,0.9-5,0.9-6.5,0c-0.2,1.3-0.8,2.5-1.6,3.5C420.4,60,419.9,61.1,419.6,62.2z M390.3,94.7c1-0.6,1.9-1.5,2.3-2.6
			c0.6-1.5,1-3.1,1.2-4.7c-1,0.9-1.7,2-2.1,3.3C391.6,91.2,391.1,92.6,390.3,94.7z M387,87.5c-0.2,0.9-0.4,1.7-0.5,2.6
			c-1.4,2.4-3,4.6-4.7,6.8c-1.4,2.5-2.7,5.1-3.8,7.7c0.7,0.9,1.6,1.7,2.6,2.3c0.8,0.9,1.8,1.6,3,1.9c0.5-0.9,0.1-1.9-1.2-2.8
			c-1.3-0.6-1.8-1.4-1.6-2.3c1.1-3,2.4-5.9,4-8.7c1.7-2.8,3.2-5.7,4.5-8.7C387.8,85.8,387,86.2,387,87.5z M391.5,87
			c-1.1,0.3-2,1.6-2.8,4c-1.1,2.5-1.9,3.9-2.3,4.2c0.5,0.9,1.3,0.2,2.6-2.1C390,91.2,390.8,89.1,391.5,87L391.5,87z M128.2,38.6
			c-1.6,1.9-2.7,3.3-3.3,4.2c-0.3,0.5-0.6,0.9-0.9,1.4c-0.6,1.4-1.2,2.6-1.6,3.5c0.4,1.2,0.9,2.3,1.6,3.3c0.2,0.3,0.3,0.6,0.5,0.9
			c1,1.5,1.4,3.2,1.4,4.9c-0.6,0.2-1.3,0.2-1.9,0c-1-0.3-1.9-0.8-2.8-1.4c-1.9-1.3-3.2-1.9-4-1.9c-1.5,1.1-2.8,2.6-3.7,4.2
			c-0.9,1.7-2.4,3.2-4.2,4c-0.5-1.6-0.6-3.3-0.5-4.9c0.3-1.5,0.6-3.1,0.7-4.7c0-1.3-0.7-2.5-1.9-3c-1.1-0.6-1.8-1.8-1.9-3
			c0-1.1,0.6-2.1,1.6-2.6c1-0.8,2-1.5,3-2.1v-5.7c0.1-1.8,0.4-3.5,0.9-5.1c1.4,0,2.5,1.1,3.3,3.3c0.6,1.2,1.5,3.2,2.6,5.8
			c0.9,0.3,2.9,0,5.8-0.9h1C126.2,38.2,127.6,38.1,128.2,38.6z M100.6,44.6c0.9-0.2,1.9-0.4,2.8-0.5c0.5,0.2,0.7,0.8,0.7,2.1
			c-0.7,0.4-1.6,0.5-2.3,0.2C101,46.4,100.6,45.8,100.6,44.6z M88.9,81.6c-0.5-0.4-1.2-0.8-1.9-0.9c-0.3,1,0.2,2.2,1.3,2.5
			c0,0,0.1,0,0.1,0c1.1,0.8,1.9,0.5,2.3-0.9C90.1,82.3,89.4,82.1,88.9,81.6L88.9,81.6z M68.8,55.9c-0.6-1.2-1-2.4-1.2-3.7
			c-2.1,0.6-4.3,0.6-6.3,0c-2.2-0.8-3.7-0.8-4.4-0.2c4.5,1.4,7.9,4.7,10.3,9.8c2.8,4.8,3.8,10.4,2.8,15.9c0.9,0.5,2.6,2,4.9,4.7
			c1.7,1.7,3.7,3.1,5.8,4c-1.7-6.4-3.1-11.2-4.2-14.5c-2.5-6.1-5.4-10.6-8.7-13.6c0.4,0,0.9,0.2,1.2,0.5c0.4,0.3,0.9,0.4,1.4,0.5
			C70.4,58.5,69.9,57.5,68.8,55.9z M67.6,65c-1.7-5.1-5.2-9.4-9.8-12.2c-4.8-2.7-10.4-4-15.9-3.5c-5.1,0.8-10.2,2.1-15,4
			c-8.6,3.3-13.7,5.2-15.4,5.8c15.3,3.9,27.5,10,36.7,18.3c-0.3,1.9-1,3.8-1.9,5.6c-0.7,1.7-1.6,3.4-2.6,4.9
			c1.7,1.6,2.9,3.6,3.5,5.8c0.9,2.2,1.1,4.7,0.5,7c-0.9,1.7-2.3,3-4,3.8c-1.5,1.2-3.5,1.6-5.4,1.2c-0.6,2.8-1.7,5.4-3.3,7.7
			c-0.5,1.7-1.9,4-4.2,7c5.1-1.6,12-4.5,20.6-8.9c6.6-3.2,13.4-5.9,20.4-8.2c1.4-2.5,1.3-7-0.2-13.3c-1.3-3.9-2.1-6.7-2.6-8.4
			c-0.7-2.9-1.2-5.9-1.4-8.9c-0.3-1.4-0.2-2.8,0.2-4.2C68,67.3,67.9,66.1,67.6,65z M72.5,81.1c-0.5-1.1-1-0.9-1.6,0.5
			c0.9,0.3,1.6,2.1,1.9,5.4c0.6,3.3,1.6,5.2,2.8,5.8c-1.1-0.5-1.6,0.3-1.6,2.3c0.3,3,0.2,4.6-0.2,4.9c1.8,0.7,3.5,1.6,5.2,2.6
			c1.6,0.8,3.5,0.9,5.1,0.2c-3.1-1.3-4-2.2-2.8-2.8L84,102c1.4,1.1,2.2,1.3,2.3,0.7c-1.6-1.2-3.2-2.4-4.7-3.7
			c-1.4-1.2-2.5-2.6-3.3-4.2c1.5-0.4,3.1,0,4.2,1.2c1.7,1.4,2.9,2.1,3.5,2.1c0.2,0.6-0.2,0.9-0.9,0.7c-1.3-0.6-2-0.9-2.1-0.7
			c1.6,1.9,3.6,3.5,5.8,4.7c1.3,0.8,2.6,1.5,4,2.1c0.9,0.5,2,0.7,3,0.7c0.5-2-0.4-3.6-2.6-4.9c-0.8-0.7-1.6-1.2-2.6-1.6
			c-0.9-0.6-1.7-1.3-2.3-2.1c1.9,0.6,3.8,1.3,5.6,2.1c1.3,0.6,3,1.6,5.1,3c-1.1-2.7-3.4-4.4-7-5.4c-1.5-0.7-3.1-1.3-4.7-1.6
			c-1.4-0.5-2.8-1.2-4-2.1c-1.1-2.3-2.8-4.2-4.9-5.6c-3.3-2.2-5.2-3.5-5.8-4v-0.9C72.8,81.9,72.7,81.5,72.5,81.1L72.5,81.1z
			 M75.5,102.7c-0.2-0.5-0.7-0.7-1.6-0.7c0,0.3-0.1,0.6-0.2,0.9c-0.2,0.4-0.1,0.9,0.2,1.2h1.6C75.7,103.3,75.7,102.8,75.5,102.7
			L75.5,102.7z M97.5,85.1c0.8,2.5,1.5,4.5,2.1,6.1c0.9,2.3,1.9,3.2,2.8,2.6c-0.9-0.5-1.7-2-2.3-4.7C99.4,86.6,98.5,85.3,97.5,85.1
			L97.5,85.1z M99.6,84.9c0.8,2,2,4.8,3.8,8.4c1.6,2.8,2.9,5.7,4,8.7c0.1,1.1-0.5,2.2-1.6,2.6c-1.3,0.8-1.8,1.6-1.6,2.3
			c1.2-0.3,2.4-0.8,3.5-1.4c0.9-0.8,1.8-1.6,2.6-2.6c-0.9-2.7-2.1-5.3-3.7-7.7c-1.6-2.1-2.9-4.4-4-6.8c-0.3-0.9-0.4-1.9-0.5-2.8
			C101.9,84.5,101.1,84.3,99.6,84.9L99.6,84.9z M95.2,85.6c0.2,1.5,0.5,3,0.9,4.4c0.4,1.1,1,2,1.9,2.8c-0.2-1.4-0.5-2.7-0.9-4
			C96.7,87.7,96,86.6,95.2,85.6L95.2,85.6z"/>
		<path class="st0" d="M399.2,53.1c0.8-2.5,1.9-3.8,3.3-3.8l-1.9,8.9C399.2,57.6,398.7,55.9,399.2,53.1z M378.1,66l-4,1.6l4-2.6
			c1.7-0.9,2.7-1,3-0.2C380.1,65.1,379.1,65.5,378.1,66z M393.4,70.4c-3.9,1.7-4.1,1.4-0.7-0.9c3.6-2.7,5.1-3.5,4.4-2.6
			c-0.7,0.8-1.5,1.5-2.3,2.1C394.2,69.4,393.7,69.9,393.4,70.4L393.4,70.4z M348.4,66.7c-0.9-0.6-1.8-1.3-2.6-1.9
			c7,4.3,15.4,5.8,23.4,4C361.6,71.6,354.7,70.9,348.4,66.7L348.4,66.7z M89.2,62.2l-2.1-8.9c1.4,0,2.5,1.3,3.3,4
			S90.6,61.6,89.2,62.2z M92.4,71.3c-0.6-1.3,0.9-0.6,4.7,2.1c3.3,2.5,3.1,2.8-0.5,0.9c-0.5,0-1.1-0.5-1.9-1.4
			C93.5,71.9,92.7,71.3,92.4,71.3z M144.6,68.5c-0.2,0.2-0.4,0.3-0.7,0.5l-11.7,4.9c-2.6,1.1-5.5,1.2-8.2,0.5
			c-1.3-0.3-2.5-0.9-3.5-1.6c1.1,0.5,2.3,0.7,3.5,0.7c3.9,0.3,8.8-0.6,14.8-2.8l4.9-1.6l0.2-0.2L144.6,68.5z M112.8,70.9
			c-2.3-1.2-3.8-1.9-4.5-1.9c0.6-0.9,1.7-0.9,3.3,0c2,1.6,3.3,2.3,3.8,2.3C115.8,72.1,115,72,112.8,70.9z"/>
		<g class="st1">
			<path class="st2" d="M176.8,14.9c0.1-0.6,0.4-1,1-1.3c0.6-0.3,1.4-0.4,2.6-0.4c0.3,0,0.5,0,0.7,0.1c0.2,0.1,0.5,0.2,0.7,0.3
				c0.1,1.5,0.2,3.9,0.4,7.2c0.2,3.3,0.3,5.9,0.4,7.8h1.2c0.7,0,1.5,0,2.3-0.1c0.8,0,1.7-0.1,2.6-0.2c0-4.3,0.1-7.5,0.1-9.4
				c0-2,0.1-3.7,0.2-5.2c0.5-0.3,1.1-0.4,1.6-0.6c0.5-0.1,1-0.2,1.5-0.2c0.3,0,0.6,0.1,0.9,0.1c0.3,0,0.7,0.1,1.3,0.3
				c-0.1,2.6-0.1,4.9-0.1,7.1c0,2.2,0,4.2,0,6v22.2v12.6c-0.5,0.3-1,0.4-1.5,0.5c-0.4,0.1-0.9,0.2-1.3,0.2c-0.4,0-0.7,0-1.1-0.1
				c-0.4,0-0.9-0.1-1.6-0.3c0.1-3,0.1-5.9,0.1-8.8s0-5.8,0-8.6c0-2.7,0-4.8,0-6.5c0-1.6,0-3.3,0-4.8l-3.2,0c-0.7,0-1.3,0-1.8,0.1
				c-0.5,0-0.9,0.1-1.2,0.2v12.4c0,3.2-0.1,6.1-0.2,8.8c-0.1,2.7-0.3,5.2-0.5,7.5c-0.5,0.1-1,0.3-1.6,0.3c-0.6,0.1-1.2,0.1-1.8,0.1
				H178l-0.9-0.6c0.1-3.3,0.3-6.5,0.3-9.7c0.1-3.2,0.1-6.4,0.1-9.7c0-3.6-0.1-7.6-0.2-12.2C177.2,25.8,177,20.6,176.8,14.9z"/>
		</g>
		<g class="st1">
			<path class="st2" d="M197.5,36.6c0-5.5,0.2-9.8,0.7-12.7c0.5-2.9,1.3-5.2,2.3-6.8c1.1-1.6,2.1-2.7,3-3.4c0.9-0.6,2-0.9,3.2-0.9
				c3,0,5.3,1.9,6.9,5.8c1.5,3.9,2.3,9.6,2.3,17.3c0,5.8-0.4,10.6-1.1,14.2s-1.9,6.4-3.4,8.3c-1.1,1.3-2.1,2.2-3.3,2.9
				c-1.1,0.7-2.2,1-3.3,1c-2.4,0-4.3-2.2-5.5-6.6S197.5,45.1,197.5,36.6z M203,36.8c0,5.9,0.2,10.4,0.5,13.5
				c0.4,3.1,0.9,5.4,1.7,6.9h0.2c1.8,0,3.1-1.6,3.9-4.9s1.2-8.4,1.2-15.6c0-6.7-0.3-11.5-1-14.4s-1.7-4.3-3.2-4.3
				c-0.4,0-0.7,0.1-1.1,0.2c-0.3,0.1-0.6,0.4-1,0.7c-0.5,1.6-0.8,3.7-1,6.4S203,31.9,203,36.8z"/>
		</g>
		<g class="st1">
			<path class="st2" d="M218.8,62c0.3-5.9,0.5-11.5,0.7-16.8c0.1-5.3,0.2-10.4,0.2-15.2c0-3.2,0-6-0.1-8.5c0-2.5-0.1-4.8-0.2-7
				c0.8-0.4,1.7-0.7,2.7-1c0.9-0.2,2-0.3,3.1-0.3c3.1,0,5.5,1,7.2,2.9c1.6,1.9,2.5,4.7,2.5,8.4c0,2.4-0.3,4.3-1,5.9
				c-0.7,1.5-1.7,2.8-3.1,3.7c1.6,1.3,2.7,2.9,3.5,5c0.7,2,1.1,4.6,1.1,7.6c0,5.1-0.9,9-2.8,11.7c-1.9,2.6-4.7,4-8.3,4
				c-0.4,0-1.3,0-2.7-0.1C220.3,62.1,219.5,62,218.8,62z M224.1,57c0.2,0.1,0.4,0.1,0.6,0.2s0.3,0,0.5,0c1.5,0,2.6-1,3.5-3
				c0.8-2,1.3-4.8,1.3-8.3c0-3.5-0.4-5.9-1.1-7.4c-0.7-1.5-1.9-2.3-3.4-2.3c-0.1,0-0.2,0-0.3,0c-0.2,0-0.3,0-0.3,0
				c0,3.4-0.1,6.8-0.2,10.2C224.5,49.9,224.3,53.4,224.1,57z M224.7,17.3c0,1.8,0,3.8,0,5.8c0,2.1,0,5.1,0,9.2
				c0.1,0,0.2,0.1,0.4,0.1s0.3,0,0.5,0c1.3,0,2.3-0.5,2.9-1.6c0.6-1.1,0.9-2.9,0.9-5.4c0-2.6-0.3-4.6-1-6.1s-1.6-2.1-2.8-2.1
				c-0.1,0-0.2,0-0.4,0C225.2,17.2,225,17.2,224.7,17.3z"/>
		</g>
		<g class="st1">
			<path class="st2" d="M237.9,36.6c0-5.5,0.2-9.8,0.7-12.7c0.5-2.9,1.3-5.2,2.3-6.8c1.1-1.6,2.1-2.7,3-3.4c0.9-0.6,2-0.9,3.2-0.9
				c3,0,5.3,1.9,6.9,5.8c1.5,3.9,2.3,9.6,2.3,17.3c0,5.8-0.4,10.6-1.1,14.2s-1.9,6.4-3.4,8.3c-1.1,1.3-2.1,2.2-3.3,2.9
				c-1.1,0.7-2.2,1-3.3,1c-2.4,0-4.3-2.2-5.5-6.6S237.9,45.1,237.9,36.6z M243.3,36.8c0,5.9,0.2,10.4,0.5,13.5
				c0.4,3.1,0.9,5.4,1.7,6.9h0.2c1.8,0,3.1-1.6,3.9-4.9c0.8-3.2,1.2-8.4,1.2-15.6c0-6.7-0.3-11.5-1-14.4s-1.7-4.3-3.2-4.3
				c-0.4,0-0.7,0.1-1.1,0.2c-0.3,0.1-0.6,0.4-1,0.7c-0.5,1.6-0.8,3.7-1,6.4S243.3,31.9,243.3,36.8z"/>
		</g>
		<g class="st1">
			<path class="st2" d="M258.6,41.2c0-7.7,1.2-13.9,3.5-18.6c2.3-4.6,5.9-7.8,10.6-9.5c0.6,0.3,1.1,0.7,1.3,1.2s0.4,1.1,0.4,1.9v0.4
				c-0.5,0.5-1.3,1.2-2.3,2c-2.8,2.3-4.5,4.3-5.3,5.8c-0.9,1.8-1.6,4.1-2.1,7c-0.5,2.9-0.7,6.2-0.7,9.8c0,4.6,0.6,8.4,1.9,11.3
				c1.3,2.9,2.9,4.3,4.8,4.3c0.3,0,1-0.2,1.9-0.7c0.2-0.1,0.4-0.2,0.5-0.2c0.4,0.3,0.8,0.7,1,1.1c0.3,0.5,0.4,1,0.4,1.6
				c0,0.1,0,0.3-0.1,0.5s-0.1,0.4-0.2,0.7c-0.6,0.9-1.2,1.6-1.8,2s-1.4,0.6-2.4,0.6c-3.4,0-6.1-2-8.3-5.9S258.6,47.6,258.6,41.2z"/>
		</g>
		<g class="st1">
			<path class="st2" d="M276,16.3c0-0.1,0-0.2,0-0.4s0-0.3,0-0.4c0.4-0.8,1.1-1.4,2.1-1.8s2.7-0.5,4.9-0.5c1.6,0,3.3,0.1,5.1,0.4
				c1.8,0.3,3.8,0.7,5.9,1.2v0.7c0,0.7-0.1,1.3-0.2,1.7s-0.4,0.9-0.7,1.3c-0.7,0-1.5-0.1-2.3-0.1c-0.8,0-1.9,0-3.4,0
				c-0.2,7.4-0.3,14.6-0.4,21.8S287,54.6,287,61.6c-0.5,0.2-1,0.4-1.5,0.5c-0.5,0.1-1,0.2-1.5,0.2c-0.3,0-0.7-0.1-1.1-0.2
				c-0.4-0.1-0.9-0.3-1.4-0.6c0.2-5.9,0.3-11.8,0.4-17.5c0.1-5.7,0.1-11.4,0.1-16.9c0-1,0-2.4,0-4.3c0-1.9,0-3.3,0-4.2
				c-2.6,0-4.4,0.1-5.4,0.1c-0.2-0.4-0.3-0.7-0.4-1.1C276.1,17.1,276,16.7,276,16.3z"/>
		</g>
		<g class="st1">
			<path class="st2" d="M295.8,44.3c0-5.9,0.1-11.4,0.3-16.5c0.2-5.1,0.4-9.7,0.8-13.8c0.3-0.3,0.6-0.4,1-0.5
				c0.3-0.1,0.7-0.2,1.2-0.2c0.6,0,1.1,0.1,1.5,0.2c0.4,0.1,0.8,0.3,1.1,0.6c-0.1,4-0.3,8.1-0.5,12.1c-0.2,4-0.2,6.1-0.2,6.2
				c1.5-4.3,2.9-7.9,4.2-10.9c1.3-3,2.6-5.6,3.9-7.9c0.9,0,1.5,0,2,0.1s0.8,0.2,1.1,0.3c0.2,2.6,0.4,5.9,0.5,9.8
				c0.1,3.9,0.2,8.7,0.2,14.2c0,3.5-0.1,9.9-0.3,19.1c0,2-0.1,3.6-0.1,4.6c-0.4,0.1-0.8,0.2-1.1,0.3c-0.3,0.1-0.5,0.1-0.7,0.1h-0.8
				c-1.1,0-1.8-0.1-2.1-0.2c-0.3-0.1-0.5-0.3-0.5-0.6c0.1-5.4,0.2-9.5,0.3-12.2c0.1-2.7,0.1-4.9,0.1-6.6c0-3.7,0-6.9-0.1-9.8
				c-0.1-2.9-0.1-5.6-0.3-8.1c-0.3,0.7-0.7,1.7-1.3,3c-2.8,6.8-4.5,11.2-5,13.3c0,6.2,0.1,10.7,0.1,13.5c0.1,2.8,0.1,5.1,0.2,7
				c-0.4,0.3-0.9,0.5-1.4,0.6c-0.5,0.1-1,0.2-1.6,0.2c-0.6,0-1-0.1-1.3-0.3s-0.6-0.5-0.8-1c-0.1-2.2-0.2-4.6-0.3-7.4
				C295.9,50.7,295.8,47.6,295.8,44.3z"/>
		</g>
	</g>
</g>
</svg>
